<svg width="48" height="48" viewBox="0 0 48 48" fill="none" xmlns="http://www.w3.org/2000/svg">
<g clip-path="url(#clip0_2116_4226)">
<path d="M10.8896 37.3269H40.1798C40.2695 37.3269 40.3564 37.3141 40.4399 37.2942C40.4466 37.2942 40.4521 37.2953 40.4587 37.2953C41.084 37.2953 41.592 36.7879 41.592 36.1622V4.13323C41.5921 3.50768 41.084 3 40.4587 3H40.1821H12.702H10.8912C7.87483 3 5.42132 5.45407 5.42132 8.46956C5.42132 8.51001 5.42927 8.54839 5.43321 8.58743C5.42927 11.373 5.39473 36.9689 5.42927 40.3337C5.42712 40.3995 5.41907 40.4638 5.41907 40.5302C5.41907 43.4298 7.68947 45.8036 10.5452 45.9829C10.6025 45.9917 10.6587 46.0001 10.7182 46.0001H40.4586C41.0839 46.0001 41.5919 45.4927 41.5919 44.8668V40.6012C41.5919 39.9758 41.0838 39.468 40.4586 39.468C39.8335 39.468 39.3254 39.9759 39.3254 40.6012V43.7337H10.8896C9.16749 43.7337 7.76174 42.3664 7.69265 40.6615C7.69433 40.6311 7.69986 40.6023 7.6993 40.5713C7.69817 40.5215 7.69649 40.4441 7.69536 40.3411C7.79441 38.6631 9.18715 37.3269 10.8896 37.3269ZM11.6623 8.46956C11.6623 7.84402 12.17 7.33633 12.7955 7.33633C13.4211 7.33633 13.9287 7.84402 13.9287 8.46956V31.4885C13.9287 32.1138 13.4211 32.6218 12.7955 32.6218C12.17 32.6218 11.6623 32.1137 11.6623 31.4885V8.46956Z" fill="black"/>
</g>
<defs>
<clipPath id="clip0_2116_4226">
<rect width="43" height="43" fill="white" transform="translate(2 3)"/>
</clipPath>
</defs>
</svg>
