<svg width="48" height="48" viewBox="0 0 48 48" fill="none" xmlns="http://www.w3.org/2000/svg">
<path d="M17 26C17 18.84 22.84 13 30 13C31.96 13 33.82 13.44 35.5 14.24V10C35.5 6.96 33.04 4.5 30 4.5H10C6.96 4.5 4.5 6.96 4.5 10V38C4.5 41.04 6.96 43.5 10 43.5H30C33.04 43.5 35.5 41.04 35.5 38V37.76C33.82 38.56 31.96 39 30 39C22.84 39 17 33.16 17 26ZM12 10.5H22C22.82 10.5 23.5 11.18 23.5 12C23.5 12.82 22.82 13.5 22 13.5H12C11.18 13.5 10.5 12.82 10.5 12C10.5 11.18 11.18 10.5 12 10.5ZM14 25.5H12C11.18 25.5 10.5 24.82 10.5 24C10.5 23.18 11.18 22.5 12 22.5H14C14.82 22.5 15.5 23.18 15.5 24C15.5 24.82 14.82 25.5 14 25.5ZM12 19.5C11.18 19.5 10.5 18.82 10.5 18C10.5 17.18 11.18 16.5 12 16.5H16C16.82 16.5 17.5 17.18 17.5 18C17.5 18.82 16.82 19.5 16 19.5H12ZM43.06 34.94L38.792 30.672C39.538 29.272 40 27.698 40 26.002C40 20.48 35.522 16.002 30 16.002C24.478 16.002 20 20.48 20 26.002C20 31.524 24.478 36.002 30 36.002C32.73 36.002 35.2 34.902 37.004 33.128L40.938 37.062C41.23 37.354 41.614 37.502 41.998 37.502C42.382 37.502 42.766 37.356 43.058 37.062C43.644 36.476 43.644 35.526 43.058 34.94H43.06ZM34.902 25.198L29.568 29.216C29.3 29.418 28.982 29.518 28.664 29.518C28.344 29.518 28.026 29.416 27.758 29.214L25.092 27.194C24.43 26.694 24.3 25.754 24.8 25.094C25.302 24.434 26.244 24.304 26.902 24.802L28.666 26.136L33.094 22.8C33.756 22.302 34.696 22.434 35.196 23.094C35.694 23.756 35.562 24.696 34.902 25.196V25.198Z" fill="black"/>
</svg>
