<svg width="54" height="54" viewBox="0 0 54 54" fill="none" xmlns="http://www.w3.org/2000/svg">
<g clip-path="url(#clip0_2679_1302)">
<path d="M42.75 11.25H38.25V6.75H15.75V11.25H11.25C8.775 11.25 6.75 13.275 6.75 15.75V18C6.75 23.7375 11.07 28.4175 16.6275 29.115C18.045 32.49 21.0825 35.0325 24.75 35.775V42.75H15.75V47.25H38.25V42.75H29.25V35.775C32.9175 35.0325 35.955 32.49 37.3725 29.115C42.93 28.4175 47.25 23.7375 47.25 18V15.75C47.25 13.275 45.225 11.25 42.75 11.25ZM11.25 18V15.75H15.75V24.345C13.14 23.4 11.25 20.925 11.25 18ZM42.75 18C42.75 20.925 40.86 23.4 38.25 24.345V15.75H42.75V18Z" fill="black"/>
</g>
<defs>
<clipPath id="clip0_2679_1302">
<rect width="54" height="54" fill="white"/>
</clipPath>
</defs>
</svg>
