<svg width="48" height="48" viewBox="0 0 48 48" fill="none" xmlns="http://www.w3.org/2000/svg">
<path d="M17.6017 8.00107C17.5957 7.01589 17.8173 6.04265 18.2492 5.15714C18.681 4.27164 19.3115 3.49779 20.0914 2.89588C20.8713 2.29396 21.7797 1.88023 22.7458 1.68692C23.7118 1.4936 24.7094 1.52592 25.6609 1.78136C26.6124 2.0368 27.4921 2.50845 28.2315 3.15959C28.9708 3.81072 29.5498 4.62376 29.9235 5.53536C30.2971 6.44695 30.4552 7.4325 30.3855 8.41523C30.3158 9.39795 30.0202 10.3513 29.5217 11.2011H27.5697C28.1903 10.5114 28.5978 9.65658 28.7427 8.74013C28.8877 7.82368 28.7639 6.88486 28.3864 6.03729C28.0089 5.18972 27.3939 4.46973 26.6157 3.96444C25.8375 3.45916 24.9295 3.19025 24.0017 3.19025C23.0738 3.19025 22.1659 3.45916 21.3877 3.96444C20.6095 4.46973 19.9944 5.18972 19.6169 6.03729C19.2394 6.88486 19.1157 7.82368 19.2606 8.74013C19.4056 9.65658 19.813 10.5114 20.4337 11.2011H18.4817C17.9096 10.2314 17.6059 9.12692 17.6017 8.00107Z" fill="black"/>
<path d="M23.9969 11.2008C25.7642 11.2008 27.1969 9.76809 27.1969 8.00078C27.1969 6.23347 25.7642 4.80078 23.9969 4.80078C22.2296 4.80078 20.7969 6.23347 20.7969 8.00078C20.7969 9.76809 22.2296 11.2008 23.9969 11.2008Z" fill="black"/>
<path d="M12.7969 13.6008C12.7969 13.3886 12.8812 13.1851 13.0312 13.0351C13.1812 12.8851 13.3847 12.8008 13.5969 12.8008H34.3969C34.6091 12.8008 34.8125 12.8851 34.9626 13.0351C35.1126 13.1851 35.1969 13.3886 35.1969 13.6008V16.0008H12.7969V13.6008Z" fill="black"/>
<path d="M16.0031 46.3992C15.791 46.3992 15.5875 46.3149 15.4374 46.1649C15.2874 46.0149 15.2031 45.8114 15.2031 45.5992V43.9992C15.2031 43.787 15.2874 43.5836 15.4374 43.4335C15.5875 43.2835 15.791 43.1992 16.0031 43.1992H28.8031C29.0153 43.1992 29.2188 43.2835 29.3688 43.4335C29.5188 43.5836 29.6031 43.787 29.6031 43.9992V45.5992C29.6031 45.8114 29.5188 46.0149 29.3688 46.1649C29.2188 46.3149 29.0153 46.3992 28.8031 46.3992H16.0031Z" fill="black"/>
<path d="M16.7969 40.7984V39.1984C16.7969 38.9863 16.8812 38.7828 17.0312 38.6328C17.1812 38.4827 17.3847 38.3984 17.5969 38.3984H30.3969C30.609 38.3984 30.8125 38.4827 30.9626 38.6328C31.1126 38.7828 31.1969 38.9863 31.1969 39.1984V40.7984C31.1969 41.0106 31.1126 41.2141 30.9626 41.3641C30.8125 41.5142 30.609 41.5984 30.3969 41.5984H17.5969C17.3847 41.5984 17.1812 41.5142 17.0312 41.3641C16.8812 41.2141 16.7969 41.0106 16.7969 40.7984Z" fill="black"/>
<path d="M19.2031 36.0016V34.4016C19.2031 34.1894 19.2874 33.9859 19.4374 33.8359C19.5875 33.6858 19.791 33.6016 20.0031 33.6016H32.8031C33.0153 33.6016 33.2188 33.6858 33.3688 33.8359C33.5188 33.9859 33.6031 34.1894 33.6031 34.4016V36.0016C33.6031 36.2137 33.5188 36.4172 33.3688 36.5672C33.2188 36.7173 33.0153 36.8016 32.8031 36.8016H20.0031C19.791 36.8016 19.5875 36.7173 19.4374 36.5672C19.2874 36.4172 19.2031 36.2137 19.2031 36.0016Z" fill="black"/>
<path d="M30.4 31.2008C30.4 31.413 30.3157 31.6164 30.1657 31.7665C30.0157 31.9165 29.8122 32.0008 29.6 32.0008H16.8C16.5878 32.0008 16.3843 31.9165 16.2343 31.7665C16.0843 31.6164 16 31.413 16 31.2008V29.6008C16 29.3886 16.0843 29.1851 16.2343 29.0351C16.3843 28.8851 16.5878 28.8008 16.8 28.8008H29.6C29.8122 28.8008 30.0157 28.8851 30.1657 29.0351C30.3157 29.1851 30.4 29.3886 30.4 29.6008V31.2008Z" fill="black"/>
<path d="M39.1969 43.2016C39.1969 44.0503 38.8597 44.8642 38.2596 45.4643C37.6595 46.0644 36.8456 46.4016 35.9969 46.4016H31.0497C31.1444 46.1454 31.1942 45.8747 31.1969 45.6016V44.0016C31.196 43.6954 31.1362 43.3923 31.0209 43.1088C31.5289 42.972 31.9778 42.6721 32.2987 42.2552C32.6196 41.8384 32.7946 41.3276 32.7969 40.8016V39.2016C32.7942 38.9284 32.7444 38.6578 32.6497 38.4016H32.7969C33.4334 38.4016 34.0438 38.1487 34.4939 37.6986C34.944 37.2485 35.1969 36.6381 35.1969 36.0016V34.4016C35.1969 33.765 34.944 33.1546 34.4939 32.7045C34.0438 32.2544 33.4334 32.0016 32.7969 32.0016H31.8497C31.9444 31.7454 31.9942 31.4747 31.9969 31.2016V29.6016C31.9969 28.965 31.744 28.3546 31.2939 27.9045C30.8438 27.4544 30.2334 27.2016 29.5969 27.2016H16.7969C16.1604 27.2016 15.5499 27.4544 15.0998 27.9045C14.6497 28.3546 14.3969 28.965 14.3969 29.6016V31.2016C14.3969 31.8381 14.6497 32.4485 15.0998 32.8986C15.5499 33.3487 16.1604 33.6016 16.7969 33.6016H17.7441C17.6493 33.8578 17.5995 34.1284 17.5969 34.4016V36.0016C17.5995 36.2747 17.6493 36.5454 17.7441 36.8016H17.5969C16.9604 36.8016 16.3499 37.0544 15.8998 37.5045C15.4497 37.9546 15.1969 38.565 15.1969 39.2016V40.8016C15.1978 41.1077 15.2575 41.4108 15.3729 41.6944C14.8649 41.8311 14.4159 42.131 14.095 42.5479C13.7742 42.9648 13.5991 43.4755 13.5969 44.0016V45.6016C13.5995 45.8747 13.6493 46.1454 13.7441 46.4016H11.9969C11.1482 46.4016 10.3342 46.0644 9.73413 45.4643C9.13402 44.8642 8.79688 44.0503 8.79688 43.2016V24.0016C8.79688 23.1529 9.13402 22.3389 9.73413 21.7388C10.3342 21.1387 11.1482 20.8016 11.9969 20.8016H12.7969C13.4334 20.8016 14.0438 20.5487 14.4939 20.0986C14.944 19.6485 15.1969 19.0381 15.1969 18.4016V17.6016H32.7969V18.4016C32.7969 19.0381 33.0497 19.6485 33.4998 20.0986C33.9499 20.5487 34.5604 20.8016 35.1969 20.8016H35.9969C36.8456 20.8016 37.6595 21.1387 38.2596 21.7388C38.8597 22.3389 39.1969 23.1529 39.1969 24.0016V43.2016Z" fill="black"/>
</svg>
