<svg width="63" height="63" viewBox="0 0 63 63" fill="none" xmlns="http://www.w3.org/2000/svg">
<path d="M33.0217 31.584C30.1504 31.9899 27.6425 34.6855 27.6183 34.7098C27.5822 34.7471 27.5415 34.7797 27.4971 34.8067C23.596 37.3388 21.397 35.4125 21.3062 35.2974C18.8104 33.05 21.1002 29.2821 21.1971 29.1246C22.2194 27.4254 23.4574 25.8657 24.8802 24.4844H14.2853L9.6875 39.6528C9.73688 39.6802 9.78182 39.7149 9.82077 39.7558C16.9567 47.8247 26.431 54.9849 30.1686 57.6866C30.5575 57.9742 31.0412 58.1034 31.5218 58.0479C32.0024 57.9925 32.444 57.7566 32.7572 57.3879C33.0705 57.0192 33.232 56.5453 33.2091 56.0621C33.1863 55.5789 32.9807 55.1224 32.634 54.785L27.4911 49.642C27.3782 49.5285 27.3149 49.3749 27.3149 49.2149C27.3149 49.0549 27.3782 48.9013 27.4911 48.7878C27.5474 48.7311 27.6144 48.686 27.6882 48.6552C27.762 48.6245 27.8412 48.6087 27.9212 48.6087C28.0011 48.6087 28.0803 48.6245 28.1541 48.6552C28.2279 48.686 28.2949 48.7311 28.3513 48.7878L31.0893 51.5259L33.5124 53.949L34.7239 55.1908C35.1586 55.6141 35.7417 55.8503 36.3484 55.8489C36.9551 55.8474 37.5371 55.6083 37.9696 55.1829C38.4021 54.7575 38.6508 54.1796 38.6624 53.573C38.674 52.9664 38.4475 52.3794 38.0314 51.9378L33.3125 47.0129L32.416 46.0861C32.3592 46.0298 32.3141 45.9628 32.2834 45.889C32.2526 45.8152 32.2368 45.736 32.2368 45.656C32.2368 45.576 32.2526 45.4969 32.2834 45.423C32.3141 45.3492 32.3592 45.2822 32.416 45.2259C32.4723 45.1691 32.5393 45.1241 32.6131 45.0933C32.6869 45.0626 32.7661 45.0467 32.8461 45.0467C32.926 45.0467 33.0052 45.0626 33.079 45.0933C33.1528 45.1241 33.2198 45.1691 33.2762 45.2259L40.1638 52.374C40.4973 52.7041 40.9195 52.9302 41.379 53.025C41.8386 53.1197 42.3158 53.0789 42.7527 52.9077C43.1896 52.7364 43.5673 52.4419 43.84 52.0601C44.1128 51.6782 44.2687 51.2254 44.289 50.7566C44.2991 50.4263 44.2396 50.0976 44.1143 49.7918C43.9891 49.4861 43.801 49.21 43.5621 48.9817L39.4308 44.9836L36.5534 42.191C36.4893 42.1376 36.437 42.0715 36.3997 41.9969C36.3623 41.9223 36.3408 41.8407 36.3365 41.7574C36.3321 41.6741 36.3451 41.5908 36.3744 41.5127C36.4038 41.4346 36.4489 41.3635 36.5071 41.3036C36.5652 41.2438 36.6351 41.1967 36.7123 41.1651C36.7895 41.1336 36.8724 41.1183 36.9558 41.1203C37.0392 41.1223 37.1213 41.1414 37.197 41.1766C37.2726 41.2118 37.3402 41.2622 37.3954 41.3248L45.5733 49.2422C45.7877 49.4625 46.0446 49.6371 46.3283 49.7554C46.6121 49.8738 46.9169 49.9335 47.2243 49.9309C47.5318 49.9283 47.8355 49.8636 48.1172 49.7404C48.399 49.6173 48.6529 49.4385 48.8636 49.2146C49.0744 48.9908 49.2376 48.7266 49.3435 48.4379C49.4495 48.1493 49.4958 47.8422 49.4799 47.5352C49.464 47.2282 49.386 46.9275 49.2508 46.6514C49.1155 46.3753 48.9258 46.1294 48.693 45.9286L33.0217 31.584Z" fill="black"/>
<path d="M12.4413 20.9315C9.2965 19.5177 5.86739 18.8501 2.42188 18.981V42.7392H6.12312C6.51815 42.7402 6.90272 42.6124 7.21861 42.3752C7.5345 42.138 7.76451 41.8043 7.8738 41.4247L13.4348 23.1123C13.5619 22.6901 13.5312 22.2362 13.3484 21.835C13.1656 21.4338 12.8432 21.1127 12.4413 20.9315Z" fill="black"/>
<path d="M34.9792 22.1079C33.6729 21.5702 32.2132 21.5378 30.8842 22.017C28.5641 22.8651 25.1779 24.9005 22.2036 29.7588C22.2036 29.7951 20.3439 32.7876 22.0945 34.399C22.1551 34.4535 23.718 35.7619 26.7468 33.8295C27.183 33.3752 29.915 30.6371 33.1438 30.3403C33.2272 30.3333 33.3112 30.3437 33.3905 30.3708C33.4697 30.3979 33.5425 30.4412 33.6041 30.4978L49.4814 45.0363C49.554 45.1029 49.6207 45.1756 49.6873 45.2483C51.5046 44.9696 52.7162 43.3098 53.0675 42.7041L47.3127 27.0207L34.9792 22.1079Z" fill="black"/>
<path d="M59.3654 21.8717C55.9102 21.8487 52.4832 22.4947 49.2733 23.7738C48.8417 23.9588 48.4984 24.3037 48.3154 24.7362C48.1325 25.1688 48.1241 25.6553 48.292 26.0939L55.0342 44.4426C55.1658 44.7966 55.4021 45.1021 55.7116 45.3185C56.021 45.535 56.3891 45.652 56.7667 45.6542H60.577V21.902C60.2741 21.8838 59.8561 21.8717 59.3654 21.8717Z" fill="black"/>
</svg>
