<svg width="63" height="63" viewBox="0 0 63 63" fill="none" xmlns="http://www.w3.org/2000/svg">
<g clip-path="url(#clip0_2356_16914)">
<path fill-rule="evenodd" clip-rule="evenodd" d="M33.8871 28.7569C33.8871 29.0254 33.9938 29.283 34.1837 29.4729C34.3736 29.6628 34.6311 29.7695 34.8997 29.7695C35.1682 29.7695 35.4258 29.6628 35.6156 29.4729C35.8055 29.283 35.9122 29.0254 35.9122 28.7569C35.9122 26.9306 34.4587 25.3964 32.5123 24.994V24.145C32.5123 23.8764 32.4056 23.6189 32.2157 23.429C32.0258 23.2391 31.7683 23.1324 31.4998 23.1324C31.2312 23.1324 30.9737 23.2391 30.7838 23.429C30.5939 23.6189 30.4872 23.8764 30.4872 24.145V24.994C28.5411 25.3964 27.0875 26.9306 27.0875 28.7569C27.0875 30.5832 28.5411 32.1161 30.4872 32.5184V36.1272C29.6764 35.8319 29.1126 35.1979 29.1126 34.4627C29.1126 34.1942 29.006 33.9366 28.8161 33.7467C28.6262 33.5568 28.3686 33.4502 28.1001 33.4502C27.8315 33.4502 27.574 33.5568 27.3841 33.7467C27.1942 33.9366 27.0875 34.1942 27.0875 34.4627C27.0875 36.2891 28.5411 37.8219 30.4872 38.2243V39.0733C30.4872 39.3418 30.5939 39.5994 30.7838 39.7893C30.9737 39.9791 31.2312 40.0858 31.4998 40.0858C31.7683 40.0858 32.0258 39.9791 32.2157 39.7893C32.4056 39.5994 32.5123 39.3418 32.5123 39.0733V38.2243C34.4587 37.8219 35.9122 36.2891 35.9122 34.4627C35.9122 32.6363 34.4587 31.1021 32.5123 30.7009V27.0924C33.3231 27.386 33.8871 28.0202 33.8871 28.7569ZM29.1129 28.7569C29.1129 28.0202 29.6767 27.386 30.4874 27.0924V30.4199C29.6767 30.1264 29.1129 29.4927 29.1129 28.7569ZM33.8871 34.4627C33.8871 35.1979 33.3231 35.8321 32.5123 36.1272V32.7983C33.3231 33.0917 33.8871 33.7271 33.8871 34.4627ZM31.5 19.5121C33.8927 19.5121 36.2317 20.2216 38.2212 21.5509C40.2107 22.8802 41.7613 24.7696 42.677 26.9802C43.5926 29.1907 43.8322 31.6232 43.3654 33.9699C42.8986 36.3167 41.7463 38.4723 40.0544 40.1642C38.3625 41.856 36.2068 43.0082 33.8601 43.4749C31.5133 43.9417 29.0809 43.702 26.8703 42.7863C24.6598 41.8706 22.7704 40.3199 21.4412 38.3304C20.1119 36.3409 19.4025 34.0018 19.4026 31.6091C19.4063 28.4019 20.682 25.327 22.9499 23.0592C25.2178 20.7913 28.2927 19.5157 31.5 19.5121ZM31.5 41.6821C29.5079 41.6821 27.5605 41.0914 25.9042 39.9847C24.2478 38.8779 22.9568 37.3049 22.1944 35.4644C21.432 33.624 21.2325 31.5988 21.6211 29.6449C22.0097 27.6911 22.969 25.8964 24.3775 24.4877C25.7861 23.079 27.5808 22.1197 29.5346 21.731C31.4884 21.3423 33.5136 21.5417 35.3541 22.3039C37.1946 23.0662 38.7677 24.3571 39.8746 26.0134C40.9814 27.6697 41.5723 29.617 41.5724 31.6091C41.5695 34.2797 40.5075 36.84 38.6191 38.7285C36.7308 40.6169 34.1705 41.6791 31.5 41.6821ZM38.5149 54.0023V55.149H24.4851V54.0023H38.5149ZM34.7413 62.8876H28.2589C28.0356 62.8918 27.8176 62.8197 27.6407 62.6832C27.4639 62.5468 27.3389 62.3541 27.2863 62.1371L26.9003 60.6665H36.1L35.7137 62.1371C35.6612 62.354 35.5362 62.5466 35.3595 62.6831C35.1828 62.8195 34.9649 62.8917 34.7417 62.8876H34.7413ZM37.5099 58.6414H25.4906C25.2241 58.6412 24.9685 58.5352 24.78 58.3468C24.5915 58.1583 24.4854 57.9028 24.4851 57.6362V57.1742H38.5149V57.6362C38.5146 57.9028 38.4085 58.1583 38.22 58.3468C38.0315 58.5352 37.7759 58.6412 37.5094 58.6414H37.5099ZM41.7617 47.6097C40.986 48.0982 40.315 48.7359 39.7875 49.4857C39.2601 50.2356 38.8867 51.0826 38.689 51.9778H24.3117C24.114 51.0826 23.7405 50.2356 23.213 49.4858C22.6855 48.7359 22.0145 48.0983 21.2388 47.6097C18.5528 45.8935 16.3432 43.5275 14.8146 40.7307C13.2859 37.9338 12.4876 34.7965 12.4934 31.6091C12.4934 21.128 21.0197 12.6022 31.5 12.6022C41.9803 12.6022 50.5068 21.1286 50.5068 31.6091C50.5125 34.7964 49.7141 37.9336 48.1854 40.7303C46.6567 43.527 44.4471 45.8929 41.7612 47.6089L41.7617 47.6097ZM31.5 9.18174C31.367 9.18174 31.2353 9.15555 31.1125 9.10466C30.9896 9.05376 30.878 8.97917 30.784 8.88513C30.6899 8.79109 30.6154 8.67946 30.5645 8.55659C30.5136 8.43373 30.4874 8.30205 30.4874 8.16907V1.12193C30.4874 0.988957 30.5136 0.857289 30.5645 0.734441C30.6154 0.611592 30.69 0.499969 30.784 0.405945C30.878 0.311921 30.9897 0.237337 31.1125 0.186451C31.2354 0.135565 31.367 0.109375 31.5 0.109375C31.633 0.109375 31.7646 0.135565 31.8875 0.186451C32.0103 0.237337 32.122 0.311921 32.216 0.405945C32.31 0.499969 32.3846 0.611592 32.4355 0.734441C32.4864 0.857289 32.5126 0.988957 32.5126 1.12193V8.1687C32.5126 8.30171 32.4865 8.43343 32.4356 8.55634C32.3848 8.67924 32.3102 8.79092 32.2162 8.885C32.1221 8.97908 32.0105 9.05371 31.8876 9.10462C31.7647 9.15554 31.633 9.18174 31.5 9.18174ZM48.0744 16.0468C48.2074 16.0469 48.339 16.0208 48.4619 15.97C48.5847 15.9192 48.6963 15.8446 48.7903 15.7506L53.7737 10.7672C53.8678 10.6732 53.9424 10.5615 53.9934 10.4386C54.0443 10.3157 54.0705 10.184 54.0705 10.051C54.0706 9.91795 54.0444 9.78622 53.9935 9.66331C53.9426 9.5404 53.8681 9.42871 53.774 9.33463C53.68 9.24055 53.5683 9.16591 53.4454 9.11497C53.3225 9.06404 53.1908 9.03781 53.0578 9.03778C52.9248 9.03775 52.793 9.06393 52.6701 9.11481C52.5472 9.16569 52.4355 9.24028 52.3414 9.33432L47.358 14.3177C47.2163 14.4593 47.1197 14.6398 47.0806 14.8363C47.0414 15.0327 47.0615 15.2364 47.1381 15.4215C47.2148 15.6066 47.3446 15.7648 47.5112 15.8761C47.6778 15.9874 47.8737 16.0467 48.074 16.0467L48.0744 16.0468ZM63 31.6091C62.9999 31.8776 62.8932 32.135 62.7034 32.3248C62.5136 32.5147 62.2563 32.6215 61.9878 32.6217H54.9404C54.6719 32.6217 54.4143 32.515 54.2244 32.3251C54.0346 32.1352 53.9279 31.8777 53.9279 31.6091C53.9279 31.3406 54.0346 31.083 54.2244 30.8931C54.4143 30.7033 54.6719 30.5966 54.9404 30.5966H61.9881C62.2565 30.5967 62.5139 30.7034 62.7037 30.8933C62.8935 31.0832 63.0001 31.3407 63 31.6091ZM53.7742 52.4519L48.7908 47.4675C48.6967 47.3735 48.585 47.2989 48.4621 47.2481C48.3392 47.1972 48.2075 47.1711 48.0745 47.1711C47.9415 47.1712 47.8098 47.1974 47.6869 47.2484C47.5641 47.2993 47.4524 47.3739 47.3584 47.468C47.2644 47.5621 47.1898 47.6738 47.139 47.7967C47.0881 47.9196 47.0619 48.0513 47.062 48.1843C47.062 48.3173 47.0883 48.449 47.1392 48.5719C47.1902 48.6948 47.2648 48.8064 47.3589 48.9004L52.3423 53.8838C52.436 53.9794 52.5476 54.0554 52.6709 54.1076C52.7941 54.1597 52.9264 54.1869 53.0602 54.1876C53.194 54.1883 53.3267 54.1625 53.4504 54.1116C53.5742 54.0607 53.6866 53.9859 53.7813 53.8913C53.8759 53.7967 53.9509 53.6843 54.0018 53.5605C54.0527 53.4368 54.0786 53.3042 54.078 53.1704C54.0774 53.0366 54.0503 52.9042 53.9982 52.781C53.9461 52.6577 53.8701 52.546 53.7746 52.4523L53.7742 52.4519ZM15.6411 47.4675C15.4511 47.2779 15.1937 47.1714 14.9252 47.1714C14.6568 47.1714 14.3993 47.2779 14.2093 47.4675L9.22593 52.4519C9.0394 52.6425 8.93558 52.8989 8.93703 53.1656C8.93847 53.4323 9.04505 53.6876 9.23364 53.8761C9.42222 54.0646 9.67757 54.1712 9.94422 54.1725C10.2109 54.1739 10.4673 54.07 10.6578 53.8834L15.6412 48.9C15.8312 48.71 15.9379 48.4523 15.9379 48.1836C15.9379 47.9149 15.8312 47.6572 15.6412 47.4672L15.6411 47.4675ZM9.07237 31.6091C9.07221 31.8776 8.96548 32.1351 8.77562 32.3249C8.58576 32.5148 8.32831 32.6215 8.05982 32.6217H1.01255C0.744007 32.6217 0.48646 32.515 0.29657 32.3251C0.106679 32.1352 0 31.8777 0 31.6091C0 31.3406 0.106679 31.083 0.29657 30.8931C0.48646 30.7033 0.744007 30.5966 1.01255 30.5966H8.05957C8.32812 30.5966 8.58566 30.7033 8.77555 30.8931C8.96544 31.083 9.07212 31.3406 9.07212 31.6091H9.07237ZM9.22618 10.767L14.2096 15.7504C14.4001 15.9377 14.6569 16.0421 14.9241 16.0409C15.1913 16.0397 15.4471 15.933 15.636 15.744C15.8248 15.555 15.9314 15.2991 15.9324 15.0319C15.9334 14.7647 15.8288 14.508 15.6413 14.3176L10.658 9.3342C10.4679 9.14433 10.2102 9.03775 9.9415 9.0379C9.67284 9.03805 9.41524 9.14492 9.22538 9.335C9.03551 9.52508 8.92893 9.78279 8.92908 10.0515C8.92923 10.3201 9.0361 10.5777 9.22618 10.7676V10.767Z" fill="black"/>
</g>
<defs>
<clipPath id="clip0_2356_16914">
<rect width="63" height="63" fill="white"/>
</clipPath>
</defs>
</svg>
