<svg width="54" height="54" viewBox="0 0 54 54" fill="none" xmlns="http://www.w3.org/2000/svg">
<g clip-path="url(#clip0_2679_1286)">
<path d="M37.8628 27.4189C41.2128 27.4189 43.9073 24.7119 43.9073 21.3765C43.9073 18.041 41.2128 15.334 37.8628 15.334C34.5129 15.334 31.7941 18.041 31.7941 21.3765C31.7941 24.7119 34.5129 27.4189 37.8628 27.4189ZM19.6566 25.002C23.6862 25.002 26.9148 21.7632 26.9148 17.751C26.9148 13.7388 23.6862 10.5 19.6566 10.5C15.6269 10.5 12.3741 13.7388 12.3741 17.751C12.3741 21.7632 15.6269 25.002 19.6566 25.002ZM37.8628 32.2529C33.4205 32.2529 24.5116 34.4766 24.5116 38.8997V44.3379H51.2141V38.8997C51.2141 34.4766 42.3051 32.2529 37.8628 32.2529ZM19.6566 29.8359C14.0005 29.8359 2.66406 32.6638 2.66406 38.2954V44.3379H19.6566V38.8997C19.6566 36.8452 20.4576 33.2439 25.4097 30.5127C23.2978 30.0776 21.2587 29.8359 19.6566 29.8359Z" fill="black"/>
</g>
<defs>
<clipPath id="clip0_2679_1286">
<rect width="54" height="54" fill="white"/>
</clipPath>
</defs>
</svg>
