<svg width="40" height="40" viewBox="0 0 40 40" fill="none" xmlns="http://www.w3.org/2000/svg">
<g clip-path="url(#clip0_2679_1182)">
<path d="M20.0026 3.32812C10.8026 3.32812 3.33594 10.7948 3.33594 19.9948C3.33594 29.1948 10.8026 36.6615 20.0026 36.6615C29.2026 36.6615 36.6693 29.1948 36.6693 19.9948C36.6693 10.7948 29.2026 3.32812 20.0026 3.32812ZM32.4359 15.1948L27.8026 17.1115C26.9526 14.8448 25.1693 13.0448 22.8859 12.2115L24.8026 7.57812C28.3026 8.91146 31.0859 11.6948 32.4359 15.1948ZM20.0026 24.9948C17.2359 24.9948 15.0026 22.7615 15.0026 19.9948C15.0026 17.2281 17.2359 14.9948 20.0026 14.9948C22.7693 14.9948 25.0026 17.2281 25.0026 19.9948C25.0026 22.7615 22.7693 24.9948 20.0026 24.9948ZM15.2193 7.56146L17.1693 12.1948C14.8693 13.0281 13.0526 14.8448 12.2026 17.1448L7.56927 15.2115C8.91927 11.6948 11.7026 8.91146 15.2193 7.56146ZM7.56927 24.7781L12.2026 22.8615C13.0526 25.1615 14.8526 26.9615 17.1526 27.7948L15.2026 32.4281C11.7026 31.0781 8.91927 28.2948 7.56927 24.7781ZM24.8026 32.4281L22.8859 27.7948C25.1693 26.9448 26.9693 25.1448 27.8026 22.8448L32.4359 24.7948C31.0859 28.2948 28.3026 31.0781 24.8026 32.4281Z" fill="#070707"/>
</g>
<defs>
<clipPath id="clip0_2679_1182">
<rect width="40" height="40" fill="white"/>
</clipPath>
</defs>
</svg>
