<svg width="40" height="40" viewBox="0 0 40 40" fill="none" xmlns="http://www.w3.org/2000/svg">
<g clip-path="url(#clip0_2679_1352)">
<path d="M31.6641 23.3385V10.0052C31.6641 8.17187 30.1641 6.67188 28.3307 6.67188H4.9974C3.16406 6.67188 1.66406 8.17187 1.66406 10.0052V23.3385C1.66406 25.1719 3.16406 26.6719 4.9974 26.6719H28.3307C30.1641 26.6719 31.6641 25.1719 31.6641 23.3385ZM16.6641 21.6719C13.8974 21.6719 11.6641 19.4385 11.6641 16.6719C11.6641 13.9052 13.8974 11.6719 16.6641 11.6719C19.4307 11.6719 21.6641 13.9052 21.6641 16.6719C21.6641 19.4385 19.4307 21.6719 16.6641 21.6719ZM38.3307 11.6719V30.0052C38.3307 31.8385 36.8307 33.3385 34.9974 33.3385H6.66406V30.0052H34.9974V11.6719H38.3307Z" fill="#070707"/>
</g>
<defs>
<clipPath id="clip0_2679_1352">
<rect width="40" height="40" fill="white"/>
</clipPath>
</defs>
</svg>
