<svg width="40" height="40" viewBox="0 0 40 40" fill="none" xmlns="http://www.w3.org/2000/svg">
<g clip-path="url(#clip0_2679_1884)">
<path d="M23.6168 22.8448L25.9502 18.8115C26.1002 18.5615 26.0335 18.2448 25.8168 18.0615L23.3502 16.1281C23.4002 15.7615 23.4335 15.3781 23.4335 14.9948C23.4335 14.6115 23.4002 14.2281 23.3502 13.8448L25.8168 11.9115C26.0335 11.7281 26.1002 11.4115 25.9502 11.1615L23.6168 7.12813C23.4668 6.87813 23.1668 6.77813 22.9002 6.87813L20.0002 8.04479C19.4002 7.57812 18.7502 7.19479 18.0335 6.89479L17.6002 3.81146C17.5502 3.54479 17.3002 3.32812 17.0168 3.32812H12.3502C12.0668 3.32812 11.8168 3.54479 11.7668 3.82812L11.3335 6.91146C10.6335 7.21146 9.96683 7.59479 9.36683 8.06146L6.46684 6.89479C6.20017 6.79479 5.90017 6.89479 5.75017 7.14479L3.41683 11.1781C3.26683 11.4281 3.3335 11.7448 3.55017 11.9281L6.01683 13.8615C5.96683 14.2281 5.9335 14.6115 5.9335 14.9948C5.9335 15.3781 5.96683 15.7615 6.01683 16.1448L3.55017 18.0781C3.3335 18.2615 3.26683 18.5781 3.41683 18.8281L5.75017 22.8615C5.90017 23.1115 6.20017 23.2115 6.46684 23.1115L9.36683 21.9448C9.96683 22.4115 10.6168 22.7948 11.3335 23.0948L11.7668 26.1781C11.8168 26.4448 12.0668 26.6615 12.3502 26.6615H17.0168C17.3002 26.6615 17.5502 26.4448 17.6002 26.1615L18.0335 23.0781C18.7335 22.7781 19.4002 22.3948 20.0002 21.9281L22.9002 23.0948C23.1668 23.1948 23.4668 23.0948 23.6168 22.8448ZM14.6835 18.3281C12.8502 18.3281 11.3502 16.8281 11.3502 14.9948C11.3502 13.1615 12.8502 11.6615 14.6835 11.6615C16.5168 11.6615 18.0168 13.1615 18.0168 14.9948C18.0168 16.8281 16.5168 18.3281 14.6835 18.3281Z" fill="#070707"/>
<path d="M36.5366 31.1141L34.9366 29.8807C34.97 29.6474 35.0033 29.3974 35.0033 29.1474C35.0033 28.8974 34.9866 28.6474 34.9366 28.4141L36.52 27.1807C36.6533 27.0641 36.7033 26.8641 36.6033 26.6974L35.1033 24.1141C35.02 23.9474 34.82 23.8974 34.6366 23.9474L32.7866 24.6974C32.4033 24.3974 31.9866 24.1474 31.52 23.9641L31.2366 21.9974C31.22 21.7974 31.0533 21.6641 30.8866 21.6641H27.9033C27.72 21.6641 27.5533 21.7974 27.5366 21.9807L27.2533 23.9474C26.8033 24.1474 26.37 24.3807 25.9866 24.6807L24.1366 23.9307C23.97 23.8641 23.77 23.9307 23.67 24.0974L22.17 26.6807C22.0866 26.8474 22.1033 27.0474 22.2533 27.1641L23.8366 28.3974C23.8033 28.6307 23.7866 28.8807 23.7866 29.1307C23.7866 29.3807 23.8033 29.6307 23.8366 29.8641L22.2533 31.0974C22.12 31.2141 22.07 31.4141 22.17 31.5807L23.67 34.1641C23.7533 34.3307 23.9533 34.3807 24.1366 34.3307L25.9866 33.5807C26.37 33.8807 26.7866 34.1307 27.2533 34.3141L27.5366 36.2807C27.57 36.4641 27.72 36.5974 27.9033 36.5974H30.8866C31.07 36.5974 31.2366 36.4641 31.2533 36.2807L31.5366 34.3141C31.9866 34.1141 32.42 33.8807 32.7866 33.5807L34.6533 34.3307C34.82 34.3974 35.02 34.3307 35.12 34.1641L36.62 31.5807C36.72 31.4307 36.67 31.2307 36.5366 31.1141ZM29.3866 31.3807C28.1533 31.3807 27.1366 30.3807 27.1366 29.1307C27.1366 27.8807 28.1366 26.8807 29.3866 26.8807C30.6366 26.8807 31.6366 27.8807 31.6366 29.1307C31.6366 30.3807 30.62 31.3807 29.3866 31.3807Z" fill="#070707"/>
</g>
<defs>
<clipPath id="clip0_2679_1884">
<rect width="40" height="40" fill="white"/>
</clipPath>
</defs>
</svg>
