<svg width="40" height="40" viewBox="0 0 40 40" fill="none" xmlns="http://www.w3.org/2000/svg">
<g clip-path="url(#clip0_2679_1253)">
<path d="M27.2609 19.8281C29.5379 19.8281 31.3694 17.9881 31.3694 15.721C31.3694 13.4538 29.5379 11.6138 27.2609 11.6138C24.9839 11.6138 23.1359 13.4538 23.1359 15.721C23.1359 17.9881 24.9839 19.8281 27.2609 19.8281ZM14.8859 18.1853C17.6249 18.1853 19.8194 15.9838 19.8194 13.2567C19.8194 10.5296 17.6249 8.32812 14.8859 8.32812C12.1469 8.32812 9.93594 10.5296 9.93594 13.2567C9.93594 15.9838 12.1469 18.1853 14.8859 18.1853ZM27.2609 23.1138C24.2414 23.1138 18.1859 24.6253 18.1859 27.6317V31.3281H36.3359V27.6317C36.3359 24.6253 30.2804 23.1138 27.2609 23.1138ZM14.8859 21.471C11.0414 21.471 3.33594 23.3931 3.33594 27.221V31.3281H14.8859V27.6317C14.8859 26.2353 15.4304 23.7874 18.7964 21.931C17.3609 21.6353 15.9749 21.471 14.8859 21.471Z" fill="#070707"/>
</g>
<defs>
<clipPath id="clip0_2679_1253">
<rect width="40" height="40" fill="white"/>
</clipPath>
</defs>
</svg>
