<svg width="54" height="54" viewBox="0 0 54 54" fill="none" xmlns="http://www.w3.org/2000/svg">
<g clip-path="url(#clip0_2679_1293)">
<path d="M45 15.75H33.75V9C33.75 6.525 31.725 4.5 29.25 4.5H24.75C22.275 4.5 20.25 6.525 20.25 9V15.75H9C6.525 15.75 4.5 17.775 4.5 20.25V45C4.5 47.475 6.525 49.5 9 49.5H45C47.475 49.5 49.5 47.475 49.5 45V20.25C49.5 17.775 47.475 15.75 45 15.75ZM20.25 27C22.1175 27 23.625 28.5075 23.625 30.375C23.625 32.2425 22.1175 33.75 20.25 33.75C18.3825 33.75 16.875 32.2425 16.875 30.375C16.875 28.5075 18.3825 27 20.25 27ZM27 40.5H13.5V38.8125C13.5 36.5625 18 35.4375 20.25 35.4375C22.5 35.4375 27 36.5625 27 38.8125V40.5ZM29.25 20.25H24.75V9H29.25V20.25ZM40.5 37.125H31.5V33.75H40.5V37.125ZM40.5 30.375H31.5V27H40.5V30.375Z" fill="black"/>
</g>
<defs>
<clipPath id="clip0_2679_1293">
<rect width="54" height="54" fill="white"/>
</clipPath>
</defs>
</svg>
