<svg width="63" height="63" viewBox="0 0 63 63" fill="none" xmlns="http://www.w3.org/2000/svg">
<path d="M31 7C17.1929 7 6 18.1929 6 32C6 45.8071 17.1929 57 31 57C44.8071 57 56 45.8071 56 32C56 18.1929 44.8071 7 31 7ZM21.2568 12.4092C21.2918 12.737 21.4338 13.0588 21.6945 13.3195C22.429 14.054 22.228 15.2922 21.299 15.7568L20.3897 16.2114C20.173 16.3198 19.9751 16.4624 19.8038 16.6337L18.3032 18.1343C17.4662 18.9713 16.2282 19.2636 15.1053 18.8893L15.0454 18.8693C14.5642 18.7089 14.0703 18.672 13.5989 18.7422C15.6242 16.0881 18.2428 13.9111 21.2568 12.4092ZM11.8819 42.6389L14.5704 41.9668C15.9616 41.619 16.9375 40.369 16.9375 38.9351V38.3599C16.9375 37.3151 17.4597 36.3394 18.3291 35.7598L18.4533 35.677C20.0941 34.5831 20.324 32.2615 18.9296 30.8671L15.7541 27.6916C15.5114 27.4489 15.375 27.1196 15.375 26.7763C15.375 25.7097 16.5927 25.1008 17.4461 25.7408L20.8525 28.2956C21.3259 28.6507 21.9594 28.7078 22.4887 28.4431C23.5276 27.9237 24.75 28.6791 24.75 29.8407V31.2611C24.75 31.7429 24.8926 32.2139 25.1599 32.6148L27.6429 36.3393C27.7969 36.5704 27.9195 36.821 28.0073 37.0845L30.2877 43.9257C30.7131 45.2018 31.9073 46.0625 33.2524 46.0625H33.4351C34.7802 46.0625 35.9744 45.2018 36.3998 43.9257L38.6802 37.0845C38.768 36.821 38.8906 36.5704 39.0446 36.3393L41.5163 32.6317C41.7795 32.2371 42.2224 32 42.6968 32C43.1951 32 43.6541 32.261 43.9218 32.6813C45.6629 35.4152 49.0154 39.8125 51.3125 39.8125C51.3558 39.8125 51.3984 39.811 51.4403 39.8081C48.2964 48.0335 40.3304 53.875 31 53.875C22.7805 53.875 15.6198 49.3417 11.8819 42.6389Z" fill="black"/>
</svg>
