<svg width="63" height="63" viewBox="0 0 63 63" fill="none" xmlns="http://www.w3.org/2000/svg">
<g clip-path="url(#clip0_2356_16938)">
<path d="M33.3496 0C29.2779 0 25.8438 3.43411 25.8438 7.50585C25.8438 11.5776 29.2779 15.0117 33.3496 15.0117C37.4213 15.0117 40.7324 11.5776 40.7324 7.50585C40.7324 3.43411 37.4213 0 33.3496 0Z" fill="black"/>
<path d="M41.5474 15.0117C39.519 17.2609 36.6137 18.7031 33.3535 18.7031C30.0932 18.7031 27.0649 17.2609 25.0365 15.0117C23.2656 16.9754 22.1562 19.548 22.1562 22.3945V24.2402C22.1562 25.2604 22.9818 26.0859 24.0019 26.0859H42.582C43.6022 26.0859 44.4277 25.2604 44.4277 24.2402V22.3945C44.4277 19.548 43.3183 16.9754 41.5474 15.0117Z" fill="black"/>
<path d="M17.8321 56.6522L8.42631 37.7947C7.5181 35.9738 5.30769 35.2312 3.48451 36.1345L1.02616 37.3522C0.110814 37.8062 -0.261648 38.9186 0.195224 39.8324L11.2694 61.9808C11.7248 62.8941 12.8326 63.2576 13.7406 62.8099L16.1673 61.6076C17.9976 60.701 18.7436 58.4801 17.8321 56.6522Z" fill="black"/>
<path d="M61.4901 30.4784C59.9765 29.371 57.8724 29.5925 56.6175 30.9583L46.5276 43.3614C45.8263 44.0997 44.4974 44.5427 43.796 44.5427H35.1949C34.1612 44.5427 33.3492 43.7307 33.3492 42.697C33.3492 41.6632 34.1612 40.8513 35.1949 40.8513C37.6669 40.8513 40.4037 40.8513 42.5777 40.8513C44.608 40.8513 46.2691 39.1901 46.2691 37.1599C46.2691 35.1296 44.608 33.4685 42.5777 33.4685C33.9096 33.4685 42.1778 33.4685 32.9062 33.4685C31.9863 33.4685 31.5276 32.8851 30.8021 32.2502C27.9464 29.6803 23.6717 28.4422 19.3442 29.4453C16.9413 30.0022 15.3209 30.9729 13.6775 32.2745L13.6227 32.2301L10.9531 34.5796L21.4446 55.6168H24.5513H42.5777C46.0476 55.6168 49.37 53.9557 51.4372 51.1872L62.2652 35.6833C63.4833 34.059 63.1511 31.6967 61.4901 30.4784Z" fill="black"/>
</g>
<defs>
<clipPath id="clip0_2356_16938">
<rect width="63" height="63" fill="white"/>
</clipPath>
</defs>
</svg>
