<svg width="63" height="63" viewBox="0 0 63 63" fill="none" xmlns="http://www.w3.org/2000/svg">
<path d="M35.3458 40.2315C35.1421 40.0084 34.8843 39.8414 34.6178 39.7024C34.0378 39.3999 33.4033 39.2164 32.7734 39.0508V43.9319C33.7959 43.8163 34.9696 43.4453 35.5065 42.4908C35.7627 42.0348 35.8137 41.4746 35.7093 40.9671C35.6527 40.6921 35.5357 40.4396 35.3458 40.2315Z" fill="black"/>
<path d="M35.5 42.5108C35.5024 42.5068 35.5037 42.5043 35.5062 42.5C35.5041 42.5036 35.5021 42.5071 35.5 42.5108Z" fill="black"/>
<path d="M27.986 32.4407C27.8102 32.6974 27.6999 32.989 27.6695 33.2989C27.639 33.6095 27.6561 33.955 27.7741 34.2474C27.8865 34.526 28.1218 34.7317 28.3647 34.8973C28.6373 35.0827 28.9371 35.2276 29.2424 35.3503C29.4986 35.4534 29.7867 35.552 30.0973 35.6473V31.2305C29.3127 31.3979 28.4554 31.7553 27.986 32.4407Z" fill="black"/>
<path d="M35.5311 42.4883C35.5237 42.5015 35.5157 42.5153 35.5078 42.5298C35.517 42.5129 35.5243 42.5004 35.5311 42.4883Z" fill="black"/>
<path d="M34.4885 15.8726C38.6394 12.3856 41.413 4.52999 39.7061 4.18641C37.4381 3.7297 32.5131 5.73229 30.1326 6.08512C26.7563 6.49278 23.0791 2.42392 21.015 4.6919C19.3367 6.53592 22.2182 13.242 26.7263 16.1635C13.2766 22.7739 -5.62789 55.9583 27.352 58.3661C72.9852 61.6978 50.135 22.3142 34.4885 15.8726ZM38.4075 42.0434C38.2671 43.3371 37.5815 44.507 36.5566 45.3013C35.4745 46.14 34.1173 46.53 32.7687 46.6393V48.0687C32.7687 48.4512 32.6017 48.8211 32.3154 49.0743C31.9218 49.4225 31.3435 49.5084 30.8659 49.2884C30.3943 49.0714 30.0845 48.5877 30.0845 48.0687V46.5064C29.8532 46.4625 29.6237 46.4102 29.3968 46.348C28.1365 46.0017 26.9674 45.3267 26.1135 44.328C25.6881 43.8303 25.3413 43.2654 25.1014 42.6557C25.0388 42.4963 24.9829 42.3341 24.934 42.17C24.8897 42.0214 24.844 41.8704 24.8282 41.7156C24.8016 41.4558 24.8531 41.1908 24.9742 40.9594C25.223 40.4835 25.7474 40.196 26.2828 40.2438C26.8097 40.2905 27.2716 40.6562 27.4375 41.1585C27.4886 41.3132 27.5232 41.4717 27.5806 41.6248C27.6375 41.7768 27.7062 41.9246 27.787 42.0653C27.9464 42.3424 28.1462 42.5979 28.3763 42.8196C28.8506 43.2766 29.4547 43.5736 30.0845 43.7503V38.4396C28.853 38.1208 27.5819 37.709 26.565 36.9183C26.0708 36.5339 25.6515 36.0563 25.3769 35.4909C25.0871 34.8943 24.967 34.2296 24.9621 33.5694C24.9571 32.899 25.0845 32.2346 25.3641 31.6238C25.6261 31.0519 26.0032 30.5385 26.4655 30.1128C27.4542 29.2029 28.7674 28.6954 30.0846 28.5089V28.3921V27.025C30.0846 26.6427 30.2516 26.2726 30.538 26.0195C30.9316 25.6714 31.5097 25.5854 31.9874 25.8054C32.4589 26.0225 32.7688 26.5061 32.7688 27.025V28.3921V28.5008C32.9444 28.5229 33.1194 28.5494 33.2935 28.5809C34.5869 28.815 35.852 29.3491 36.7979 30.2817C37.246 30.7234 37.6128 31.2497 37.8708 31.8236C37.9428 31.9837 38.0059 32.1475 38.0604 32.3146C38.1113 32.4703 38.1624 32.6307 38.1866 32.7932C38.2254 33.0527 38.1859 33.3208 38.0748 33.5582C37.8473 34.0446 37.337 34.3543 36.8002 34.3313C36.2728 34.3083 35.7949 33.9648 35.606 33.4718C35.5498 33.3252 35.5217 33.1699 35.4643 33.0237C35.4064 32.8757 35.3314 32.7344 35.245 32.601C35.077 32.3417 34.8594 32.1193 34.6109 31.9361C34.073 31.5388 33.4205 31.3318 32.7685 31.2161V36.2983C33.5433 36.4838 34.3188 36.6862 35.0612 36.9789C36.1833 37.4214 37.2465 38.0998 37.859 39.1696C37.764 39.003 37.6715 38.8405 37.8622 39.1751C38.0494 39.5038 37.96 39.3472 37.866 39.1825C38.3533 40.0412 38.5134 41.0679 38.4075 42.0434Z" fill="black"/>
<path d="M35.4841 42.5391C35.475 42.5552 35.4672 42.5694 35.4609 42.5803C35.4663 42.5709 35.4743 42.5569 35.4841 42.5391Z" fill="black"/>
</svg>
