<svg width="40" height="40" viewBox="0 0 40 40" fill="none" xmlns="http://www.w3.org/2000/svg">
<g clip-path="url(#clip0_2679_1494)">
<path d="M20.0002 4C19.2335 4 18.4502 4.06667 17.6669 4.23333C13.0669 5.11667 9.4002 8.83333 8.53353 13.4333C7.73353 17.7833 9.33353 21.7833 12.2335 24.3667C12.9502 25 13.3335 25.8833 13.3335 26.8167V30.6667C13.3335 32.5 14.8335 34 16.6669 34H17.1335C17.7169 35 18.7669 35.6667 20.0002 35.6667C21.2335 35.6667 22.3002 35 22.8669 34H23.3335C25.1669 34 26.6669 32.5 26.6669 30.6667V26.8167C26.6669 25.9 27.0335 25 27.7335 24.3833C30.1502 22.25 31.6669 19.1333 31.6669 15.6667C31.6669 9.21667 26.4502 4 20.0002 4ZM23.3335 30.6667H16.6669V29H23.3335V30.6667ZM23.3335 27.3333H16.6669V25.6667H23.3335V27.3333ZM20.8335 18.0167V22.3333H19.1669V18.0167L16.1169 14.9833L17.3002 13.8L20.0002 16.5L22.7002 13.8L23.8835 14.9833L20.8335 18.0167Z" fill="#070707"/>
</g>
<defs>
<clipPath id="clip0_2679_1494">
<rect width="40" height="40" fill="white"/>
</clipPath>
</defs>
</svg>
