<svg width="64" height="64" viewBox="0 0 64 64" fill="none" xmlns="http://www.w3.org/2000/svg">
<path d="M56 47.9922V50.6589C56 52.0733 55.4381 53.4299 54.4379 54.4301C53.4377 55.4303 52.0812 55.9922 50.6667 55.9922H13.3333C10.3733 55.9922 8 53.5922 8 50.6589V13.3255C8 11.911 8.5619 10.5545 9.5621 9.55428C10.5623 8.55409 11.9188 7.99219 13.3333 7.99219H50.6667C52.0812 7.99219 53.4377 8.55409 54.4379 9.55428C55.4381 10.5545 56 11.911 56 13.3255V15.9922H32C29.04 15.9922 26.6667 18.3922 26.6667 21.3255V42.6589C26.6667 44.0733 27.2286 45.4299 28.2288 46.4301C29.229 47.4303 30.5855 47.9922 32 47.9922H56ZM32 42.6589H58.6667V21.3255H32V42.6589ZM42.6667 35.9922C41.6058 35.9922 40.5884 35.5708 39.8382 34.8206C39.0881 34.0705 38.6667 33.0531 38.6667 31.9922C38.6667 30.9313 39.0881 29.9139 39.8382 29.1638C40.5884 28.4136 41.6058 27.9922 42.6667 27.9922C43.7275 27.9922 44.7449 28.4136 45.4951 29.1638C46.2452 29.9139 46.6667 30.9313 46.6667 31.9922C46.6667 33.0531 46.2452 34.0705 45.4951 34.8206C44.7449 35.5708 43.7275 35.9922 42.6667 35.9922Z" fill="black"/>
</svg>
