<svg width="64" height="64" viewBox="0 0 64 64" fill="none" xmlns="http://www.w3.org/2000/svg">
<path d="M13.3307 16.0039H61.3307V48.0039H13.3307V16.0039ZM37.3307 24.0039C39.4525 24.0039 41.4873 24.8468 42.9876 26.3471C44.4879 27.8473 45.3307 29.8822 45.3307 32.0039C45.3307 34.1256 44.4879 36.1605 42.9876 37.6608C41.4873 39.1611 39.4525 40.0039 37.3307 40.0039C35.209 40.0039 33.1742 39.1611 31.6739 37.6608C30.1736 36.1605 29.3307 34.1256 29.3307 32.0039C29.3307 29.8822 30.1736 27.8473 31.6739 26.3471C33.1742 24.8468 35.209 24.0039 37.3307 24.0039ZM23.9974 21.3372C23.9974 22.7517 23.4355 24.1083 22.4353 25.1085C21.4351 26.1087 20.0785 26.6706 18.6641 26.6706V37.3372C20.0785 37.3372 21.4351 37.8991 22.4353 38.8993C23.4355 39.8995 23.9974 41.2561 23.9974 42.6706H50.6641C50.6641 41.2561 51.226 39.8995 52.2262 38.8993C53.2263 37.8991 54.5829 37.3372 55.9974 37.3372V26.6706C54.5829 26.6706 53.2263 26.1087 52.2262 25.1085C51.226 24.1083 50.6641 22.7517 50.6641 21.3372H23.9974ZM2.66406 26.6706H7.9974V53.3372H50.6641V58.6706H2.66406V26.6706Z" fill="black"/>
</svg>
