<svg width="51" height="48" viewBox="0 0 51 48" fill="none" xmlns="http://www.w3.org/2000/svg">
<path d="M48 39.9922V42.6589C48 44.0733 47.4381 45.4299 46.4379 46.4301C45.4377 47.4303 44.0812 47.9922 42.6667 47.9922H5.33333C2.37333 47.9922 0 45.5922 0 42.6589V5.32552C0 3.91103 0.561903 2.55448 1.5621 1.55428C2.56229 0.55409 3.91885 -0.0078125 5.33333 -0.0078125H42.6667C44.0812 -0.0078125 45.4377 0.55409 46.4379 1.55428C47.4381 2.55448 48 3.91103 48 5.32552V7.99219H24C21.04 7.99219 18.6667 10.3922 18.6667 13.3255V34.6589C18.6667 36.0733 19.2286 37.4299 20.2288 38.4301C21.229 39.4303 22.5855 39.9922 24 39.9922H48ZM24 34.6589H50.6667V13.3255H24V34.6589ZM34.6667 27.9922C33.6058 27.9922 32.5884 27.5708 31.8382 26.8206C31.0881 26.0705 30.6667 25.0531 30.6667 23.9922C30.6667 22.9313 31.0881 21.9139 31.8382 21.1638C32.5884 20.4136 33.6058 19.9922 34.6667 19.9922C35.7275 19.9922 36.7449 20.4136 37.4951 21.1638C38.2452 21.9139 38.6667 22.9313 38.6667 23.9922C38.6667 25.0531 38.2452 26.0705 37.4951 26.8206C36.7449 27.5708 35.7275 27.9922 34.6667 27.9922Z" fill="black"/>
</svg>
