<svg width="64" height="64" viewBox="0 0 64 64" fill="none" xmlns="http://www.w3.org/2000/svg">
<path d="M42.6693 45.3309V50.6642H5.33594V45.3309C5.33594 45.3309 5.33594 34.6642 24.0026 34.6642C42.6693 34.6642 42.6693 45.3309 42.6693 45.3309ZM33.3359 19.9975C33.3359 18.1516 32.7885 16.3471 31.763 14.8122C30.7374 13.2774 29.2798 12.0811 27.5743 11.3747C25.8689 10.6682 23.9922 10.4834 22.1818 10.8435C20.3713 11.2037 18.7082 12.0926 17.4029 13.3979C16.0977 14.7032 15.2087 16.3662 14.8486 18.1767C14.4885 19.9872 14.6733 21.8638 15.3797 23.5692C16.0861 25.2747 17.2824 26.7324 18.8173 27.7579C20.3521 28.7835 22.1566 29.3309 24.0026 29.3309C26.478 29.3309 28.8519 28.3475 30.6023 26.5972C32.3526 24.8469 33.3359 22.4729 33.3359 19.9975ZM42.5093 34.6642C44.1486 35.9329 45.49 37.5454 46.4391 39.3882C47.3881 41.2311 47.9218 43.2595 48.0026 45.3309V50.6642H58.6693V45.3309C58.6693 45.3309 58.6693 35.6509 42.5093 34.6642ZM40.0026 10.6642C38.1671 10.654 36.372 11.2028 34.8559 12.2375C36.4758 14.5008 37.3468 17.2143 37.3468 19.9975C37.3468 22.7808 36.4758 25.4942 34.8559 27.7575C36.372 28.7923 38.1671 29.3411 40.0026 29.3309C42.478 29.3309 44.8519 28.3475 46.6023 26.5972C48.3526 24.8469 49.3359 22.4729 49.3359 19.9975C49.3359 17.5222 48.3526 15.1482 46.6023 13.3979C44.8519 11.6475 42.478 10.6642 40.0026 10.6642Z" fill="black"/>
</svg>
