<svg width="60" height="54" viewBox="0 0 60 54" fill="none" xmlns="http://www.w3.org/2000/svg">
<path d="M59.3307 24.6641C59.3307 21.7041 56.9307 19.3307 53.9974 19.3307H37.1441L39.7041 7.14406C39.7574 6.8774 39.7841 6.58406 39.7841 6.29073C39.7841 5.1974 39.3307 4.18406 38.6107 3.46406L35.7841 0.664062L18.2374 18.2107C17.2507 19.1974 16.6641 20.5307 16.6641 21.9974V48.6641C16.6641 50.0785 17.226 51.4351 18.2262 52.4353C19.2264 53.4355 20.5829 53.9974 21.9974 53.9974H45.9974C48.2107 53.9974 50.1041 52.6641 50.9041 50.7441L58.9574 31.9441C59.1974 31.3307 59.3307 30.6907 59.3307 29.9974V24.6641ZM0.664062 53.9974H11.3307V21.9974H0.664062V53.9974Z" fill="black"/>
</svg>
