<svg width="64" height="64" viewBox="0 0 64 64" fill="none" xmlns="http://www.w3.org/2000/svg">
<path d="M43.6293 37.332C43.8426 35.572 44.0026 33.812 44.0026 31.9987C44.0026 30.1854 43.8426 28.4254 43.6293 26.6654H52.6426C53.0693 28.372 53.3359 30.1587 53.3359 31.9987C53.3359 33.8387 53.0693 35.6254 52.6426 37.332H43.6293ZM38.9093 52.1587C40.5093 49.1987 41.7359 45.9987 42.5893 42.6654H50.4559C47.8959 47.0654 43.8159 50.4787 38.9093 52.1587ZM38.2426 37.332H25.7626C25.4959 35.572 25.3359 33.812 25.3359 31.9987C25.3359 30.1854 25.4959 28.3987 25.7626 26.6654H38.2426C38.4826 28.3987 38.6693 30.1854 38.6693 31.9987C38.6693 33.812 38.4826 35.572 38.2426 37.332ZM32.0026 53.2254C29.7893 50.0254 28.0026 46.4787 26.9093 42.6654H37.0959C36.0026 46.4787 34.2159 50.0254 32.0026 53.2254ZM21.3359 21.332H13.5493C16.0826 16.9054 20.1893 13.492 25.0693 11.8387C23.4693 14.7987 22.2693 17.9987 21.3359 21.332ZM13.5493 42.6654H21.3359C22.2693 45.9987 23.4693 49.1987 25.0693 52.1587C20.1893 50.4787 16.0826 47.0654 13.5493 42.6654ZM11.3626 37.332C10.9359 35.6254 10.6693 33.8387 10.6693 31.9987C10.6693 30.1587 10.9359 28.372 11.3626 26.6654H20.3759C20.1626 28.4254 20.0026 30.1854 20.0026 31.9987C20.0026 33.812 20.1626 35.572 20.3759 37.332H11.3626ZM32.0026 10.7454C34.2159 13.9454 36.0026 17.5187 37.0959 21.332H26.9093C28.0026 17.5187 29.7893 13.9454 32.0026 10.7454ZM50.4559 21.332H42.5893C41.7359 17.9987 40.5093 14.7987 38.9093 11.8387C43.8159 13.5187 47.8959 16.9054 50.4559 21.332ZM32.0026 5.33203C17.2559 5.33203 5.33594 17.332 5.33594 31.9987C5.33594 39.0711 8.14545 45.8539 13.1464 50.8549C15.6227 53.3311 18.5624 55.2954 21.7977 56.6355C25.0331 57.9756 28.5007 58.6654 32.0026 58.6654C39.075 58.6654 45.8578 55.8558 50.8588 50.8549C55.8598 45.8539 58.6693 39.0711 58.6693 31.9987C58.6693 28.4968 57.9795 25.0292 56.6394 21.7938C55.2993 18.5585 53.335 15.6187 50.8588 13.1425C48.3826 10.6663 45.4428 8.70204 42.2075 7.36191C38.9721 6.02179 35.5045 5.33203 32.0026 5.33203Z" fill="black"/>
</svg>
