<svg width="64" height="64" viewBox="0 0 64 64" fill="none" xmlns="http://www.w3.org/2000/svg">
<path d="M50.6667 24.0026V18.6693C50.6667 17.2548 50.1048 15.8982 49.1046 14.898C48.1044 13.8978 46.7478 13.3359 45.3333 13.3359H42.6667V5.33594H37.3333V13.3359H34.6667C33.2522 13.3359 31.8956 13.8978 30.8954 14.898C29.8952 15.8982 29.3333 17.2548 29.3333 18.6693V24.0026C27.9188 24.0026 26.5623 24.5645 25.5621 25.5647C24.5619 26.5649 24 27.9214 24 29.3359V32.0026H13.3333C11.9188 32.0026 10.5623 32.5645 9.5621 33.5647C8.5619 34.5649 8 35.9214 8 37.3359V58.6693H16V53.3359H21.3333V58.6693H32V53.3359H37.3333V58.6693H42.6667V53.3359H48V58.6693H56V29.3359C56 27.9214 55.4381 26.5649 54.4379 25.5647C53.4377 24.5645 52.0812 24.0026 50.6667 24.0026ZM21.3333 48.0026H16V42.6693H21.3333V48.0026ZM37.3333 48.0026H32V42.6693H37.3333V48.0026ZM37.3333 37.3359H32V32.0026H37.3333V37.3359ZM34.6667 24.0026V18.6693H45.3333V24.0026H34.6667ZM48 48.0026H42.6667V42.6693H48V48.0026ZM48 37.3359H42.6667V32.0026H48V37.3359Z" fill="black"/>
</svg>
