<svg width="48" height="54" viewBox="0 0 48 54" fill="none" xmlns="http://www.w3.org/2000/svg">
<path d="M42.6667 19.0026V13.6693C42.6667 12.2548 42.1048 10.8982 41.1046 9.89803C40.1044 8.89784 38.7478 8.33594 37.3333 8.33594H34.6667V0.335938H29.3333V8.33594H26.6667C25.2522 8.33594 23.8956 8.89784 22.8954 9.89803C21.8952 10.8982 21.3333 12.2548 21.3333 13.6693V19.0026C19.9188 19.0026 18.5623 19.5645 17.5621 20.5647C16.5619 21.5649 16 22.9214 16 24.3359V27.0026H5.33333C3.91885 27.0026 2.56229 27.5645 1.5621 28.5647C0.561903 29.5649 0 30.9214 0 32.3359V53.6693H8V48.3359H13.3333V53.6693H24V48.3359H29.3333V53.6693H34.6667V48.3359H40V53.6693H48V24.3359C48 22.9214 47.4381 21.5649 46.4379 20.5647C45.4377 19.5645 44.0812 19.0026 42.6667 19.0026ZM13.3333 43.0026H8V37.6693H13.3333V43.0026ZM29.3333 43.0026H24V37.6693H29.3333V43.0026ZM29.3333 32.3359H24V27.0026H29.3333V32.3359ZM26.6667 19.0026V13.6693H37.3333V19.0026H26.6667ZM40 43.0026H34.6667V37.6693H40V43.0026ZM40 32.3359H34.6667V27.0026H40V32.3359Z" fill="black"/>
</svg>
