<svg width="48" height="48" viewBox="0 0 48 48" fill="none" xmlns="http://www.w3.org/2000/svg">
<path fill-rule="evenodd" clip-rule="evenodd" d="M17.333 26.2336C16.1013 24.34 13.9664 23.0832 11.5454 23.0832C10.8743 23.0832 10.2252 23.1799 9.61115 23.3601C9.57764 23.2351 9.54574 23.1097 9.51543 22.9838L6.6391 21.8768V17.1792L9.51543 16.0723C9.88437 14.5348 10.4899 13.073 11.3178 11.7295L10.0641 8.91004L13.3851 5.589L16.2046 6.84265C17.5481 6.01479 19.0099 5.40924 20.5426 5.045L21.6544 2.16406H26.3519L27.459 5.045C28.9917 5.40924 30.4534 6.01479 31.7969 6.84265L34.6164 5.589L37.9374 8.91004L36.6885 11.7295C37.5164 13.073 38.1219 14.5348 38.4862 16.0723L41.3624 17.1792V21.8768L38.4862 22.9838C38.4562 23.1099 38.4245 23.2356 38.3913 23.3608C37.7761 23.1802 37.1258 23.0832 36.4534 23.0832C34.0344 23.0832 31.9001 24.3399 30.6685 26.2336H30.5206C30.7664 25.5262 30.9001 24.7672 30.9001 23.9779C30.9001 23.9705 30.9001 23.963 30.9001 23.9556C31.7221 22.6781 32.1991 21.1575 32.1991 19.5257C32.1991 14.9984 28.528 11.3322 24.0008 11.3322C19.4736 11.3322 15.8072 14.9984 15.8072 19.5257C15.8072 21.1572 16.2833 22.6775 17.1043 23.9548V23.9779C17.1043 24.7672 17.238 25.5262 17.4838 26.2336H17.333ZM26.6056 39.8307H21.3951C19.97 37.8712 17.9743 36.3533 15.652 35.5212C16.7983 34.6686 17.6724 33.4694 18.1176 32.0812C19.804 30.9635 21.8264 30.3125 24.0008 30.3125C26.1752 30.3125 28.1973 30.9628 29.8834 32.0795C30.3284 33.4683 31.2027 34.6681 32.3488 35.521C30.027 36.3531 28.0313 37.8711 26.6056 39.8307ZM24.0008 29.3713C21.031 29.3713 18.6102 26.9477 18.6102 23.9779C18.6102 21.0081 21.031 18.5845 24.0008 18.5845C26.9734 18.5845 29.3942 21.0081 29.3942 23.9779C29.3942 26.9477 26.9734 29.3713 24.0008 29.3713ZM1.69793 45.8352C1.50376 45.8352 1.31948 45.7496 1.1943 45.6011C1.06903 45.4527 1.01576 45.2567 1.04851 45.0652C1.95647 40.0903 6.31054 36.3171 11.5454 36.3171C16.783 36.3171 21.1373 40.0905 22.0395 45.0661C22.072 45.2566 22.0189 45.4516 21.8943 45.5993C21.7697 45.7469 21.5864 45.8321 21.3932 45.8321C18.095 45.8352 4.99684 45.8352 1.69793 45.8352ZM11.5454 35.3759C8.57557 35.3759 6.15477 32.9523 6.15477 29.9825C6.15477 27.0127 8.57557 24.5891 11.5454 24.5891C14.518 24.5891 16.9388 27.0127 16.9388 29.9825C16.9388 32.9523 14.518 35.3759 11.5454 35.3759ZM26.606 45.8352C26.4117 45.8352 26.2274 45.7496 26.1023 45.6011C25.9771 45.4527 25.9238 45.2567 25.9566 45.0652C26.8645 40.0903 31.2186 36.3171 36.4534 36.3171C41.6911 36.3171 46.0452 40.0905 46.9475 45.0661C46.98 45.2566 46.9269 45.4516 46.8023 45.5993C46.6778 45.7469 46.4944 45.8321 46.3012 45.8321C43.0031 45.8352 29.9049 45.8352 26.606 45.8352ZM36.4534 35.3759C33.4836 35.3759 31.0628 32.9523 31.0628 29.9825C31.0628 27.0127 33.4836 24.5891 36.4534 24.5891C39.426 24.5891 41.8468 27.0127 41.8468 29.9825C41.8468 32.9523 39.426 35.3759 36.4534 35.3759Z" fill="black"/>
</svg>
