<svg width="64" height="64" viewBox="0 0 64 64" fill="none" xmlns="http://www.w3.org/2000/svg">
<path fill-rule="evenodd" clip-rule="evenodd" d="M56 8.56251C56 8.0944 55.7901 7.65095 55.4281 7.35417C55.0661 7.05739 54.5901 6.93855 54.1311 7.03036L38.8125 10.0941L23.4939 7.03036C23.2916 6.9899 23.0834 6.9899 22.8811 7.03036L7.25607 10.1554C6.52572 10.3014 6 10.9427 6 11.6875V55.4375C6 55.9056 6.20988 56.3491 6.57189 56.6459C6.9339 56.9426 7.40991 57.0615 7.86893 56.9697L23.1875 53.906L38.5061 56.9697C38.7084 57.0101 38.9166 57.0101 39.1189 56.9697L54.7439 53.8447C55.4743 53.6986 56 53.0573 56 52.3125V8.56251ZM22.6855 51.882V9.15176L23.1855 9.05176L23.6855 9.15176V51.882L23.2836 51.8016C23.2189 51.7886 23.1522 51.7886 23.0875 51.8016L22.6855 51.882ZM38.3105 54.807V12.0768L38.7125 12.1571C38.7772 12.1701 38.8439 12.1701 38.9086 12.1571L39.3105 12.0768V54.807L38.8105 54.907L38.3105 54.807Z" fill="black"/>
</svg>
