<svg width="63" height="63" viewBox="0 0 63 63" fill="none" xmlns="http://www.w3.org/2000/svg">
<path d="M31.6093 19.6646C31.7452 20.0179 32.0804 20.2444 32.4518 20.2444H47.0121C47.5195 20.2444 47.9181 19.8367 47.9181 19.3384V12.6794C47.9181 12.1721 47.5195 11.7734 47.0121 11.7734H32.4518C32.0804 11.7734 31.7452 11.9999 31.6093 12.3442C31.4734 12.6975 31.564 13.0871 31.8358 13.3407L34.7349 16.0044L31.8358 18.668C31.564 18.9216 31.4734 19.3203 31.6093 19.6646Z" fill="black"/>
<path d="M17.6542 16.1464V6.91406L8.42188 16.1464H17.6542Z" fill="black"/>
<path d="M7.8125 55.6508C7.8125 56.2283 8.2745 56.7008 8.8625 56.7008H43.5335C44.111 56.7008 44.573 56.2388 44.5835 55.6613C44.2685 55.7768 43.9115 55.8398 43.5335 55.8398C43.061 55.8398 42.62 55.7452 42.221 55.5563C40.1525 54.6322 29.7785 49.5503 29.7785 42.0743V32.1728C29.7785 30.4403 31.196 29.0228 32.9285 29.0228C33.044 29.0228 33.1385 28.9283 33.1385 28.8233C33.1385 27.0908 34.556 25.6733 36.2885 25.6733H44.5835V22.3447H32.456C31.2065 22.3447 30.104 21.5888 29.6525 20.4233C29.2115 19.2893 29.516 17.9663 30.4085 17.1263L31.637 16.0028L30.419 14.8898C29.5055 14.0288 29.2115 12.7478 29.6525 11.5928C30.1145 10.4168 31.217 9.67124 32.456 9.67124H44.5835V7.35078C44.5835 6.77329 44.111 6.30078 43.5335 6.30078H19.751V17.1998C19.751 17.7773 19.289 18.2498 18.701 18.2498H7.8125V55.6508ZM13.787 27.1013H25.589C26.177 27.1013 26.639 27.5738 26.639 28.1513C26.639 28.7393 26.177 29.2013 25.589 29.2013H13.787C13.199 29.2013 12.737 28.7393 12.737 28.1513C12.737 27.5738 13.199 27.1013 13.787 27.1013ZM13.787 32.6978H25.589C26.177 32.6978 26.639 33.1702 26.639 33.7478C26.639 34.3253 26.177 34.7978 25.589 34.7978H13.787C13.199 34.7978 12.737 34.3253 12.737 33.7478C12.737 33.1702 13.199 32.6978 13.787 32.6978ZM13.787 38.2942H26.5235C27.101 38.2942 27.5735 38.7563 27.5735 39.3442C27.5735 39.9217 27.101 40.3942 26.5235 40.3942H13.787C13.199 40.3942 12.737 39.9217 12.737 39.3442C12.737 38.7563 13.199 38.2942 13.787 38.2942ZM13.787 43.8803H27.185C27.773 43.8803 28.235 44.3528 28.235 44.9303C28.235 45.5077 27.773 45.9803 27.185 45.9803H13.787C13.199 45.9803 12.737 45.5077 12.737 44.9303C12.737 44.3528 13.199 43.8803 13.787 43.8803ZM13.787 49.4768H29.075C29.6525 49.4768 30.125 49.9493 30.125 50.5268C30.125 51.1043 29.6525 51.5768 29.075 51.5768H13.787C13.199 51.5768 12.737 51.1043 12.737 50.5268C12.737 49.9493 13.199 49.4768 13.787 49.4768Z" fill="black"/>
<path d="M55.185 42.0744V32.1729C55.185 31.5954 54.7125 31.1229 54.135 31.1229C52.8645 31.1229 51.825 30.0939 51.825 28.8234C51.825 28.2354 51.363 27.7734 50.775 27.7734H36.285C35.697 27.7734 35.235 28.2354 35.235 28.8234C35.235 30.0939 34.1955 31.1229 32.925 31.1229C32.3475 31.1229 31.875 31.5954 31.875 32.1729V42.0744C31.875 48.5529 42.6375 53.4459 43.0995 53.6559C43.236 53.7189 43.383 53.7399 43.53 53.7399C43.6665 53.7399 43.8135 53.7189 43.95 53.6559C44.0655 53.6034 46.743 52.3959 49.4415 50.4324C53.253 47.6814 55.185 44.8674 55.185 42.0744ZM43.53 47.3769C39.4875 47.3769 36.1905 44.0799 36.1905 40.0374C36.1905 35.9949 39.4875 32.6979 43.53 32.6979C47.5725 32.6979 50.8695 35.9949 50.8695 40.0374C50.8695 44.0799 47.5725 47.3769 43.53 47.3769Z" fill="black"/>
<path d="M45.017 37.667L42.5079 40.1771L42.0424 39.7126C41.6322 39.3025 40.9678 39.3025 40.5576 39.7126C40.1475 40.1228 40.1475 40.7883 40.5576 41.1974L41.7655 42.4043C41.9706 42.6094 42.2393 42.7119 42.5079 42.7119C42.7766 42.7119 43.0452 42.6094 43.2503 42.4043L46.5018 39.1518C46.912 38.7416 46.912 38.0771 46.5018 37.667C46.0917 37.2568 45.4272 37.2568 45.017 37.667Z" fill="black"/>
</svg>
