<svg width="48" height="48" viewBox="0 0 48 48" fill="none" xmlns="http://www.w3.org/2000/svg">
<path fill-rule="evenodd" clip-rule="evenodd" d="M24.1877 6.1034C20.634 5.98506 17.0437 6.95459 13.944 9.02367C10.4626 11.35 8.02955 14.7853 6.90889 18.6257C6.59942 18.5879 6.22883 18.6046 5.78879 18.729C4.14586 19.1952 2.91019 20.5414 2.35458 21.7271C1.63396 23.2722 1.33004 25.3157 1.65063 27.4254C1.96899 29.5283 2.8574 31.2618 3.96862 32.338C5.08317 33.4148 6.34161 33.7648 7.59173 33.502C9.45301 33.1048 10.3759 32.8075 10.1153 31.0735L8.85351 22.6677C9.10798 18.1184 11.4632 13.8358 15.4025 11.2022C20.6752 7.68022 27.588 7.90579 32.6174 11.7667C36.116 14.4492 38.1473 18.4684 38.3818 22.6877L37.4995 28.5677C35.5315 33.9532 30.6527 37.6835 25.0072 38.213H21.248C20.2779 38.213 19.4967 38.9942 19.4967 39.9632V40.8866C19.4967 41.8561 20.2779 42.6373 21.248 42.6373H25.9879C26.9574 42.6373 27.7353 41.8561 27.7353 40.8866V40.4038C31.9923 39.3648 35.7082 36.7484 38.1279 33.0998L39.6464 33.5026C40.882 33.8232 42.1555 33.4148 43.2695 32.3386C44.3807 31.2618 45.2685 29.5289 45.5875 27.4259C45.9092 25.3163 45.5963 23.2761 44.8841 21.7276C44.169 20.1791 43.1039 19.1957 41.8743 18.8429C41.3593 18.6946 40.8004 18.6401 40.3209 18.6257C39.3074 15.1531 37.2211 11.9951 34.2142 9.68929C31.2578 7.42075 27.7414 6.22008 24.1877 6.1034Z" fill="black"/>
<path fill-rule="evenodd" clip-rule="evenodd" d="M29.741 21.2302C30.9939 21.2302 32.0095 22.2459 32.0123 23.5021C32.0095 24.755 30.9939 25.7734 29.741 25.7734C28.4848 25.7734 27.4663 24.755 27.4663 23.5021C27.4663 22.2464 28.4853 21.2302 29.741 21.2302ZM23.6237 21.2302C24.8794 21.2302 25.8951 22.2459 25.8951 23.5021C25.8951 24.755 24.8794 25.7734 23.6237 25.7734C22.367 25.7734 21.3513 24.755 21.3513 23.5021C21.3513 22.2464 22.367 21.2302 23.6237 21.2302ZM17.5087 21.2302C18.7616 21.2302 19.7801 22.2459 19.7801 23.5021C19.7801 24.755 18.7616 25.7734 17.5087 25.7734C16.2531 25.7734 15.2369 24.755 15.2369 23.5021C15.2369 22.2464 16.2531 21.2302 17.5087 21.2302ZM23.6237 11.4727C16.962 11.4727 11.5938 16.6642 11.5938 23.5021C11.5938 26.7863 12.8355 29.6888 14.8585 31.8184L14.1407 35.0365C13.904 36.0955 14.6385 36.8078 15.5902 36.2777L18.7327 34.5248C20.2262 35.1732 21.878 35.5315 23.6237 35.5315C30.2877 35.5315 35.6526 30.3433 35.6526 23.5021C35.6526 16.6642 30.2877 11.4727 23.6237 11.4727Z" fill="black"/>
</svg>
