<svg width="130" height="130" viewBox="0 0 130 130" fill="none" xmlns="http://www.w3.org/2000/svg">
<path d="M26.9085 115.301C18.4899 109.184 11.7099 101.085 7.16894 91.7219C2.62802 82.3586 0.466367 72.0199 0.875467 61.6216C1.28457 51.2233 4.25179 41.0864 9.5143 32.1088C14.7768 23.1312 22.1722 15.59 31.0453 10.1532C39.9184 4.71635 49.9955 1.55175 60.3838 0.939665C70.7721 0.327585 81.151 2.28693 90.6012 6.64414C100.051 11.0013 108.281 17.6219 114.562 25.9194C120.842 34.2169 124.979 43.9353 126.606 54.2135L123.74 54.6675C122.187 44.8606 118.24 35.5881 112.247 27.6711C106.255 19.7542 98.4026 13.4373 89.3859 9.27997C80.3692 5.12261 70.4663 3.25314 60.5545 3.83715C50.6427 4.42115 41.0279 7.4406 32.5617 12.628C24.0956 17.8155 17.0394 25.0108 12.0183 33.5766C6.99719 42.1424 4.16607 51.8144 3.77573 61.7357C3.3854 71.657 5.44789 81.5215 9.78053 90.4553C14.1132 99.3892 20.5822 107.117 28.6146 112.953L26.9085 115.301Z" fill="#626262" fill-opacity="0.2"/>
<path d="M119.733 65.3839C119.905 63.3632 121.336 61.8801 122.916 62.0145L122.828 63.0508C121.766 62.9604 120.789 64.0124 120.665 65.4761C120.577 66.5124 120.892 68.0265 122.096 68.129C123.21 68.2237 123.655 66.983 124.107 65.6515C124.63 64.1043 125.373 62.4322 127.005 62.571C128.896 62.7319 129.334 64.7914 129.22 66.1385C129.058 68.0426 127.712 69.4417 126.223 69.315L126.311 68.2787C127.282 68.3613 128.173 67.3934 128.287 66.0592C128.357 65.2302 128.173 63.7141 126.982 63.6128C125.893 63.5202 125.451 64.7351 124.998 66.0665C124.474 67.6267 123.731 69.3118 122.086 69.1719C120.143 69.0066 119.606 66.8864 119.733 65.3839Z" fill="#626262"/>
<path d="M117.936 76.5076C118.659 73.956 121.298 72.4607 123.825 73.1763C126.351 73.892 127.814 76.5493 127.092 79.1009C126.535 81.0647 124.788 82.3669 122.835 82.4892L123.122 81.476C124.557 81.2746 125.784 80.2843 126.191 78.8458C126.758 76.8446 125.567 74.7509 123.541 74.177C121.515 73.603 119.403 74.7614 118.836 76.7627C118.429 78.2011 118.966 79.6909 120.07 80.6116L119.78 81.6373C118.181 80.5088 117.38 78.4714 117.936 76.5076Z" fill="#626262"/>
<path d="M115.813 84.0494L123.892 88.2372L121.93 92.0228C121.212 93.4078 119.494 93.9526 118.109 93.2347C116.932 92.6245 116.364 91.2905 116.656 90.0505L112.451 90.5358L112.995 89.4855L117.101 89.022L118.381 86.5521L115.334 84.9727L115.813 84.0494ZM119.212 86.9829L117.729 89.8452C117.274 90.7223 117.665 91.8328 118.588 92.3114C119.511 92.79 120.644 92.4693 121.099 91.5921L122.582 88.7298L119.212 86.9829Z" fill="#626262"/>
<path d="M107.735 97.1656C109.417 95.1155 112.434 94.7999 114.464 96.4659C116.494 98.1318 116.773 101.152 115.091 103.203C113.408 105.253 110.391 105.568 108.361 103.902C106.331 102.236 106.052 99.2156 107.735 97.1656ZM113.804 97.2698C112.176 95.9338 109.778 96.1515 108.458 97.7594C107.139 99.3672 107.393 101.762 109.021 103.098C110.649 104.434 113.048 104.217 114.367 102.609C115.687 101.001 115.432 98.6059 113.804 97.2698Z" fill="#626262"/>
<path d="M102.068 103.891L107.892 110.883L107.093 111.548L101.868 105.275L98.0918 108.42L97.4928 107.701L102.068 103.891Z" fill="#626262"/>
<path d="M94.8214 109.752L99.4499 117.587L98.5544 118.116L94.4021 111.087L90.1711 113.586L89.6951 112.78L94.8214 109.752Z" fill="#626262"/>
<path d="M78.9428 118.261C76.6774 118.847 75.7002 120.779 76.1985 122.704C76.6969 124.63 78.4884 125.845 80.7538 125.258L82.7674 124.737L80.9564 117.74L78.9428 118.261ZM81.7287 116.573L84.0088 125.383L80.9883 126.164C78.1692 126.894 75.8203 125.394 75.1917 122.965C74.563 120.536 75.8891 118.084 78.7082 117.355L81.7287 116.573Z" fill="#626262"/>
<path d="M65.6817 119.447C68.3321 119.355 70.5628 121.411 70.654 124.035C70.7452 126.66 68.6625 128.865 66.0121 128.957C63.3617 129.05 61.131 126.994 61.0398 124.369C60.9486 121.745 63.0313 119.539 65.6817 119.447ZM69.6146 124.071C69.5415 121.967 67.7929 120.31 65.7142 120.383C63.6354 120.455 62.006 122.229 62.0792 124.333C62.1523 126.438 63.9009 128.094 65.9796 128.022C68.0584 127.95 69.6878 126.176 69.6146 124.071Z" fill="#626262"/>
<path d="M54.7284 119.487L55.5881 128.967L54.5704 128.753L53.9235 120.911L50.1308 127.818L49.2149 127.625L48.4843 119.739L44.7117 126.677L43.7576 126.476L48.3552 118.144L49.2711 118.337L49.999 126.236L53.8125 119.294L54.7284 119.487Z" fill="#626262"/>
<path d="M36.1093 113.654L38.1731 122.924L41.3757 116.141L42.2221 116.541L38.3368 124.77L37.4904 124.37L35.4265 115.1L32.2239 121.883L31.3775 121.484L35.2629 113.255L36.1093 113.654Z" fill="#626262"/>
<path d="M80 65L77.3563 62.3563L66.875 72.8188V50H63.125V72.8188L52.6437 62.3563L50 65L65 80L80 65Z" fill="black"/>
</svg>
