<svg width="63" height="63" viewBox="0 0 63 63" fill="none" xmlns="http://www.w3.org/2000/svg">
<path d="M14.3572 10.5274C14.4265 10.5499 14.4967 10.5607 14.5651 10.5607C14.8495 10.5607 15.1141 10.3798 15.2068 10.0945L15.9043 7.94619C16.0195 7.59159 15.826 7.21089 15.4714 7.09569C15.115 6.98049 14.737 7.17489 14.6218 7.52859L13.9243 9.67689C13.8082 10.0315 14.0017 10.4131 14.3572 10.5274Z" fill="black"/>
<path d="M13.2004 13.1109C12.9817 12.8094 12.5587 12.741 12.2581 12.9615L8.90827 15.3951C7.02097 16.7649 6.07417 19.0446 6.43507 21.3423C6.48817 21.6753 6.77437 21.912 7.10107 21.912C7.13617 21.912 7.17127 21.9093 7.20637 21.9039C7.57447 21.8463 7.82647 21.5007 7.76887 21.1326C7.48717 19.338 8.22697 17.5587 9.70027 16.4877L13.0501 14.0541C13.3525 13.8345 13.42 13.4133 13.2004 13.1109Z" fill="black"/>
<path d="M33.3699 12.3398C25.1979 12.3398 18.5469 18.9908 18.5469 27.1628C18.5469 35.3348 25.1979 41.9858 33.3699 41.9858C41.5509 41.9858 48.2019 35.3348 48.2019 27.1628C48.2019 18.9908 41.5509 12.3398 33.3699 12.3398ZM33.3699 36.9908C27.9429 36.9908 23.5329 32.5988 23.5329 27.1628C23.5329 21.7358 27.9429 17.3258 33.3699 17.3258C38.8059 17.3258 43.2069 21.7358 43.2069 27.1628C43.2069 32.5988 38.8059 36.9908 33.3699 36.9908Z" fill="black"/>
<path d="M48.0569 45.4702L49.8749 39.8749C49.9991 39.4933 50.2403 39.1603 50.5652 38.9245L55.3244 35.4667C55.9904 34.9825 56.2694 34.1248 56.0147 33.3418L54.1967 27.7465C54.0725 27.3649 54.0725 26.9536 54.1967 26.572L56.0147 20.9767C56.2694 20.1937 55.9904 19.336 55.3244 18.8518L50.5652 15.394C50.2403 15.1582 49.9991 14.8252 49.8749 14.4436L48.0569 8.84831C47.8022 8.06531 47.0732 7.53521 46.2497 7.53521H40.3673C39.9659 7.53521 39.5753 7.40831 39.2504 7.17251L34.4912 3.71471C33.8252 3.23051 32.9234 3.23051 32.2574 3.71471L27.4982 7.17251C27.1733 7.40831 26.7827 7.53521 26.3813 7.53521H20.4989C19.6754 7.53521 18.9464 8.06531 18.6917 8.84831L16.8737 14.4436C16.7495 14.8252 16.5083 15.1582 16.1834 15.394L11.4242 18.8518C10.7582 19.336 10.4792 20.1937 10.7339 20.9767L12.5519 26.572C12.6761 26.9536 12.6761 27.3649 12.5519 27.7465L10.7339 33.3418C10.4792 34.1248 10.7582 34.9825 11.4242 35.4667L16.1834 38.9245C16.5083 39.1603 16.7495 39.4933 16.8737 39.8749L18.6917 45.4702C18.9464 46.2532 19.6754 46.7833 20.4989 46.7833H26.3813C26.7827 46.7833 27.1733 46.9102 27.4982 47.146L32.2574 50.6038C32.9234 51.088 33.8252 51.088 34.4912 50.6038L39.2504 47.146C39.5753 46.9102 39.9659 46.7833 40.3673 46.7833H46.2497C47.0723 46.7833 47.8022 46.2532 48.0569 45.4702ZM33.3707 43.3363C24.4526 43.3363 17.1968 36.0805 17.1968 27.1633C17.1968 18.2452 24.4526 10.9903 33.3707 10.9903C42.2933 10.9903 49.5518 18.2452 49.5518 27.1633C49.5518 36.0805 42.2933 43.3363 33.3707 43.3363Z" fill="black"/>
<path d="M37.5378 25.1469C37.5378 23.1615 35.9223 21.5469 33.9369 21.5469H31.9497C31.1928 21.5469 30.5781 22.1625 30.5781 22.9185V26.0667V28.0728V32.0958C30.5781 32.4684 30.8805 32.7708 31.2531 32.7708C31.6257 32.7708 31.9281 32.4684 31.9281 32.0958V28.7478H33.8559L35.5974 32.3865C35.7135 32.6295 35.9547 32.7708 36.2076 32.7708C36.3048 32.7708 36.4047 32.7501 36.4974 32.7051C36.834 32.544 36.9762 32.1408 36.816 31.8051L35.2338 28.4967C36.5784 27.9738 37.5378 26.6742 37.5378 25.1469ZM33.9378 27.3969H31.9317L31.9506 22.8969H33.9378C35.1789 22.8969 36.1887 23.9067 36.1887 25.1469C36.1878 26.3871 35.178 27.3969 33.9378 27.3969Z" fill="black"/>
<path d="M56.5859 52.933L50.5199 42.25L49.3409 45.886C48.8999 47.236 47.6579 48.136 46.2449 48.136H40.4219L46.4969 58.855C46.6769 59.17 47.1449 59.143 47.2889 58.801L49.4399 53.527C49.6289 53.068 50.0969 52.789 50.5829 52.861L56.1449 53.599C56.5049 53.644 56.7659 53.257 56.5859 52.933Z" fill="black"/>
<path d="M25.047 57.6812C24.7221 57.4976 24.3108 57.6128 24.1272 57.935L23.7285 58.6388C23.5449 58.9628 23.6583 59.375 23.9823 59.5586C24.3099 59.744 24.7203 59.6252 24.9021 59.3048L25.3008 58.601C25.4844 58.277 25.371 57.8648 25.047 57.6812Z" fill="black"/>
<path d="M28.6685 51.275C28.3436 51.0914 27.9314 51.2066 27.7487 51.5288L25.541 55.4231C25.3574 55.7471 25.4708 56.1593 25.7948 56.3429C26.1224 56.5283 26.5328 56.4095 26.7146 56.0891L28.9223 52.1948C29.1059 51.8708 28.9925 51.4586 28.6685 51.275Z" fill="black"/>
<path d="M20.5022 48.1333C19.0892 48.1333 17.8472 47.2333 17.4062 45.8833L16.2182 42.2383L10.1522 52.9303C9.97217 53.2543 10.2332 53.6413 10.5932 53.5963L16.1552 52.8583C16.6412 52.7863 17.1092 53.0653 17.2982 53.5243L19.4492 58.7983C19.5932 59.1403 20.0612 59.1673 20.2412 58.8523L26.3162 48.1333H20.5022Z" fill="black"/>
</svg>
