<svg width="48" height="48" viewBox="0 0 48 48" fill="none" xmlns="http://www.w3.org/2000/svg">
<g clip-path="url(#clip0_2116_4391)">
<path d="M28.5 11.625V-3.9075C30.6684 -3.08575 32.6634 -1.81988 34.3544 -0.13125L42.6289 8.148C44.3199 9.83662 45.5858 11.8316 46.4075 14H30.875C29.564 14 28.5 12.9336 28.5 11.625ZM20.7029 35.375H25.4671L23.1515 27.4567L20.7029 35.375ZM47.443 18.75H30.875C26.9468 18.75 23.75 15.5532 23.75 11.625V-4.943C23.3676 -4.96913 22.9853 -5 22.5981 -5H11.875C5.32713 -5 0 0.327125 0 6.875V40.125C0 46.6729 5.32713 52 11.875 52H35.625C42.1729 52 47.5 46.6729 47.5 40.125V19.9019C47.5 19.5147 47.4691 19.1324 47.443 18.75ZM11.3976 27.3V40.6C11.3976 41.6497 10.5474 42.5 9.49763 42.5C8.44788 42.5 7.59762 41.6497 7.59762 40.6V27.3H4.27262C3.22525 27.3 2.37263 26.4497 2.37263 25.4C2.37263 24.3502 3.22288 23.5 4.27262 23.5H14.7226C15.77 23.5 16.6226 24.3502 16.6226 25.4C16.6226 26.4497 15.7724 27.3 14.7226 27.3H11.3976ZM29.507 42.424C29.3289 42.4762 29.1508 42.5024 28.9726 42.5024C28.1485 42.5024 27.3909 41.9632 27.1486 41.1344L26.5762 39.175H19.5249L18.9192 41.1344C18.6271 42.1414 17.5821 42.7209 16.5632 42.424C15.5562 42.1295 14.9791 41.075 15.2736 40.068L19.2755 26.3904C19.7814 24.6614 21.2919 23.5024 23.0351 23.5024C24.7784 23.5024 26.2889 24.6661 26.7924 26.3927L29.754 36.5126C29.773 36.553 29.7754 36.5981 29.792 36.6409L30.7942 40.068C31.0887 41.075 30.514 42.1295 29.507 42.424ZM44.8471 39.612C45.391 40.5074 45.106 41.6782 44.2106 42.2245C43.9019 42.4121 43.5623 42.5024 43.225 42.5024C42.5814 42.5024 41.9567 42.177 41.5981 41.5904L38.589 36.6456L35.5799 41.5904C35.2236 42.1794 34.5966 42.5024 33.953 42.5024C33.6157 42.5024 33.2761 42.4121 32.9674 42.2245C32.072 41.6782 31.787 40.5097 32.3309 39.612L36.3612 32.9881L32.3309 26.3642C31.787 25.4689 32.072 24.298 32.9674 23.7517C33.8651 23.2031 35.0336 23.4905 35.5799 24.3882L38.589 29.333L41.5981 24.3882C42.142 23.4929 43.3105 23.2031 44.2106 23.7517C45.106 24.298 45.391 25.4665 44.8471 26.3642L40.8168 32.9881L44.8471 39.612Z" fill="black"/>
</g>
<defs>
<clipPath id="clip0_2116_4391">
<rect width="48" height="48" fill="white"/>
</clipPath>
</defs>
</svg>
