<svg width="48" height="48" viewBox="0 0 48 48" fill="none" xmlns="http://www.w3.org/2000/svg">
<path fill-rule="evenodd" clip-rule="evenodd" d="M29.0392 45.253H10.9438C8.69119 45.253 6.85938 43.4212 6.85938 41.1438V7.13134C6.85938 4.87869 8.69119 3.04688 10.9438 3.04688H36.3913C38.6687 3.04688 40.5005 4.87869 40.5005 7.13134V33.7917C40.352 33.7422 40.1787 33.6927 40.0054 33.6927H32.6781C30.6235 33.6927 28.9402 35.376 28.9402 37.4306V44.7579C28.9402 44.9312 28.9897 45.1045 29.0392 45.253ZM15.9195 20.7215C12.7014 20.7215 10.0774 18.0975 10.0774 14.8794C10.0774 11.6614 12.7014 9.03742 15.9195 9.03742C19.1375 9.03742 21.7615 11.6614 21.7615 14.8794C21.7615 18.0975 19.1375 20.7215 15.9195 20.7215ZM15.9195 10.0276C13.246 10.0276 11.0676 12.206 11.0676 14.8794C11.0676 17.5529 13.246 19.7313 15.9195 19.7313C18.5929 19.7313 20.7713 17.5529 20.7713 14.8794C20.7713 12.206 18.5929 10.0276 15.9195 10.0276ZM14.1124 17.1568C13.6916 17.1568 13.4688 16.637 13.7658 16.3152L17.38 12.7258C17.8255 12.2555 18.5187 12.9734 18.0731 13.4189L14.4837 17.0331C14.3847 17.1073 14.2609 17.1568 14.1124 17.1568ZM17.677 18.1965C15.6472 18.1965 15.6472 15.0775 17.677 15.0775C19.7316 15.0775 19.7316 18.1965 17.677 18.1965ZM17.677 16.0676C17.1819 16.0676 16.9344 16.6865 17.2809 17.0331C17.8008 17.5529 18.6177 16.7608 18.0731 16.2409C17.9741 16.1419 17.8255 16.0676 17.677 16.0676ZM14.1867 14.6566C12.132 14.6566 12.132 11.5376 14.1867 11.5376C16.2165 11.5376 16.2165 14.6566 14.1867 14.6566ZM14.1867 12.5278C13.6668 12.5278 13.4193 13.1466 13.7658 13.4932C14.2857 14.013 15.1026 13.2209 14.5827 12.7011C14.4589 12.602 14.3352 12.5278 14.1867 12.5278ZM36.7626 12.5773H23.8408C23.1972 12.5773 23.1972 11.5871 23.8408 11.5871H36.7626C37.431 11.5871 37.431 12.5773 36.7626 12.5773ZM36.7626 16.3895H23.8408C23.1972 16.3895 23.1972 15.3993 23.8408 15.3993H36.7626C37.431 15.3993 37.431 16.3895 36.7626 16.3895ZM36.7626 20.2016H23.8408C23.1972 20.2016 23.1972 19.2114 23.8408 19.2114H36.7626C37.431 19.2114 37.431 20.2016 36.7626 20.2016ZM36.7626 24.0138H10.5725C9.92891 24.0138 9.92891 23.0236 10.5725 23.0236H36.7626C37.431 23.0236 37.431 24.0138 36.7626 24.0138ZM36.7626 27.8259H10.5725C9.92891 27.8259 9.92891 26.8358 10.5725 26.8358H36.7626C37.431 26.8358 37.431 27.8259 36.7626 27.8259ZM36.7626 31.6381H10.5725C9.92891 31.6381 9.92891 30.6479 10.5725 30.6479H36.7626C37.431 30.6479 37.431 31.6381 36.7626 31.6381ZM27.7025 35.4503H10.5725C9.92891 35.4503 9.92891 34.4601 10.5725 34.4601H27.7025C28.3709 34.4601 28.3709 35.4503 27.7025 35.4503ZM27.2569 39.2624H10.5725C9.92891 39.2624 9.92891 38.2723 10.5725 38.2723H27.2569C27.9005 38.2723 27.9005 39.2624 27.2569 39.2624Z" fill="black"/>
<path fill-rule="evenodd" clip-rule="evenodd" d="M30.2763 45.2538C30.004 45.2538 29.7812 45.031 29.7812 44.7587V37.4314C29.7812 35.8224 31.0685 34.5352 32.6775 34.5352H40.0048C40.4504 34.5352 40.6731 35.055 40.3513 35.3768L30.6229 45.1052C30.5239 45.2043 30.4001 45.2538 30.2763 45.2538Z" fill="black"/>
</svg>
