<svg width="63" height="63" viewBox="0 0 63 63" fill="none" xmlns="http://www.w3.org/2000/svg">
<path fill-rule="evenodd" clip-rule="evenodd" d="M55.4695 6.67903V3.47379C55.4703 3.28787 55.4289 3.10421 55.3482 2.93668C55.2676 2.76916 55.15 2.62216 55.0042 2.5068C54.8584 2.39144 54.6882 2.31074 54.5067 2.27081C54.3251 2.23088 54.1368 2.23275 53.9561 2.27629L35.294 6.67903H55.4695ZM44.8943 14.5294C47.4725 14.5293 49.9709 15.4232 51.9639 17.0587C53.9569 18.6942 55.3212 20.9702 55.8242 23.4988C56.3273 26.0275 55.938 28.6523 54.7227 30.9261C53.5074 33.1998 51.5413 34.9819 49.1594 35.9686C46.7775 36.9552 44.1271 37.0855 41.66 36.3371C39.1928 35.5887 37.0614 34.0081 35.6291 31.8644C34.1967 29.7207 33.5519 27.1467 33.8046 24.581C34.0573 22.0152 35.1918 19.6164 37.0148 17.7934C38.0484 16.7571 39.2766 15.9353 40.6289 15.3751C41.9811 14.815 43.4306 14.5276 44.8943 14.5294ZM40.1833 18.8475C40.4753 18.1835 40.8414 17.5546 41.2746 16.9728C40.3941 17.3398 39.5745 17.8385 38.8438 18.4517C39.265 18.5993 39.7126 18.7314 40.1833 18.8475ZM41.2746 34.3728C40.8668 33.826 40.5189 33.237 40.2369 32.6158C39.7893 32.725 39.3616 32.8496 38.9566 32.9871C39.6587 33.5579 40.4394 34.0247 41.2746 34.3728ZM49.5516 32.6162C49.2696 33.2372 48.9218 33.8261 48.5141 34.3728C49.3495 34.0245 50.1304 33.5576 50.8326 32.9865C50.4283 32.8493 50.0002 32.7254 49.5516 32.6162ZM48.5141 16.9728C48.9472 17.5546 49.3133 18.1835 49.6054 18.8475C50.076 18.7314 50.5237 18.599 50.9449 18.4517C50.2141 17.8385 49.3945 17.3398 48.5141 16.9728ZM38.8704 26.5335H35.5128C35.6828 28.4124 36.4156 30.1963 37.6153 31.6523C38.2679 31.389 38.9375 31.17 39.6196 30.9968C39.1801 29.547 38.9284 28.0468 38.8706 26.5329L38.8704 26.5335ZM44.0329 30.3777V26.5339H40.5945C40.6498 27.9302 40.8898 29.313 41.3082 30.6462C42.2101 30.5005 43.1202 30.411 44.0332 30.3781L44.0329 30.3777ZM44.0329 34.5437V32.1022C43.3474 32.1285 42.6636 32.189 41.9841 32.2837C42.4271 33.1436 43.1269 34.1294 44.0329 34.5446V34.5437ZM45.7556 32.1014V34.5437C46.6605 34.1294 47.362 33.1425 47.8043 32.2832C47.1249 32.1885 46.4411 32.1278 45.7556 32.1014ZM49.1944 26.5335H45.7558V30.3776C46.6689 30.4104 47.5791 30.4997 48.4811 30.6452C48.8994 29.3122 49.1394 27.9296 49.1948 26.5335H49.1944ZM54.2762 26.5335H50.9185C50.8607 28.0472 50.609 29.5473 50.1697 30.997C50.8514 31.1707 51.5207 31.3901 52.173 31.6539C53.3731 30.1976 54.106 28.4132 54.276 26.5339L54.2762 26.5335ZM50.9184 24.8109H54.276C54.11 22.9742 53.406 21.2273 52.2521 19.7887C51.5869 20.0627 50.9033 20.2899 50.2064 20.4688C50.6224 21.8811 50.8615 23.3396 50.9182 24.8109H50.9184ZM45.7557 21.0982V24.8109H49.1941C49.1398 23.4587 48.9135 22.119 48.5205 20.8241C47.6055 20.9737 46.682 21.0652 45.7555 21.0983L45.7557 21.0982ZM45.7557 16.8006V19.3744C46.4622 19.3472 47.1668 19.2834 47.8667 19.1834C47.4146 18.2798 46.7027 17.2342 45.7557 16.8006ZM44.0331 19.3744V16.801C43.0856 17.2351 42.3751 18.2798 41.9221 19.1838C42.622 19.2838 43.3266 19.3475 44.0331 19.3748V19.3744ZM40.5945 24.8109H44.0331V21.0985C43.1066 21.0655 42.1831 20.9739 41.2682 20.8244C40.8752 22.1193 40.6488 23.459 40.5945 24.8111V24.8109ZM35.5127 24.8109H38.8705C38.9272 23.3396 39.1662 21.8811 39.5821 20.4688C38.8852 20.2899 38.2017 20.0626 37.5364 19.7887C36.3826 21.2273 35.6787 22.9742 35.5127 24.8109ZM7.27761 41.4563H2.98807C2.71808 41.4571 2.4594 41.5648 2.26844 41.7556C2.07749 41.9465 1.96976 42.2051 1.96875 42.4751V59.7371C1.96963 60.0071 2.07731 60.2659 2.26828 60.4568C2.45926 60.6477 2.71802 60.7554 2.98807 60.7562H7.27761C7.54762 60.7553 7.80633 60.6477 7.99728 60.4567C8.18822 60.2658 8.2959 60.0071 8.2968 59.7371V42.4751C8.2959 42.2051 8.18823 41.9464 7.99729 41.7554C7.80635 41.5645 7.54764 41.4568 7.27761 41.4559V41.4563ZM10.0195 44.1033V58.0586L23.4286 58.0869C25.5819 58.05 27.2923 57.2936 29.1216 56.2353L41.7476 48.9456C42.1648 48.7049 42.5306 48.3844 42.8239 48.0023C43.1173 47.6203 43.3325 47.1842 43.4573 46.7189C43.5821 46.2537 43.6141 45.7684 43.5514 45.2908C43.4886 44.8132 43.3325 44.3526 43.0918 43.9354C42.851 43.5182 42.5305 43.1524 42.1484 42.8591C41.7664 42.5657 41.3303 42.3505 40.865 42.2257C40.3998 42.1009 39.9145 42.0689 39.4369 42.1316C38.9593 42.1944 38.4988 42.3505 38.0815 42.5913L28.379 48.2039C28.2494 48.2911 28.0985 48.3414 27.9425 48.3495C27.7865 48.3576 27.6312 48.3231 27.4932 48.2499C27.3552 48.1766 27.2398 48.0672 27.1591 47.9334C27.0784 47.7996 27.0356 47.6465 27.0352 47.4902V34.4535H25.5166C24.2991 34.4499 23.474 34.7826 22.6072 35.6499L15.2766 42.9803C14.9158 43.3504 14.4831 43.6428 14.0052 43.8397C13.5273 44.0367 13.0142 44.1339 12.4974 44.1255L10.0195 44.1033ZM37.0641 53.6341H59.8008C60.1269 53.6335 60.4395 53.5036 60.6702 53.273C60.9008 53.0424 61.0306 52.7298 61.0312 52.4036V9.63204C61.0306 9.30589 60.9008 8.99327 60.6702 8.76265C60.4395 8.53202 60.1269 8.40219 59.8008 8.40157H28.7579V45.9994L37.1733 41.1313C39.2239 39.945 42.0777 40.3223 43.7168 41.9557H50.8456C51.074 41.9557 51.2931 42.0465 51.4546 42.208C51.6161 42.3695 51.7069 42.5886 51.7069 42.817C51.7069 43.0455 51.6161 43.2646 51.4546 43.4261C51.2931 43.5876 51.074 43.6784 50.8456 43.6784H44.8778C45.159 44.3447 45.3021 45.0612 45.2984 45.7844H52.8963C53.1247 45.7844 53.3438 45.8752 53.5053 46.0367C53.6668 46.1982 53.7576 46.4173 53.7576 46.6458C53.7576 46.8742 53.6668 47.0933 53.5053 47.2548C53.3438 47.4164 53.1247 47.5071 52.8963 47.5071H45.0089C44.6181 48.6548 43.6213 49.8492 42.5564 50.464L37.0641 53.6341Z" fill="black"/>
</svg>
